<?xml version="1.0" encoding="utf-8"?>
<svg xmlns="http://www.w3.org/2000/svg" xmlns:xlink="http://www.w3.org/1999/xlink" width="600" height="400" viewBox="0 0 2400 1600">
<defs>
  <clipPath id="clip910">
    <rect x="0" y="0" width="2400" height="1600"/>
  </clipPath>
</defs>
<path clip-path="url(#clip910)" d="M0 1600 L2400 1600 L2400 0 L0 0  Z" fill="#ffffff" fill-rule="evenodd" fill-opacity="1"/>
<defs>
  <clipPath id="clip911">
    <rect x="247" y="47" width="2106" height="1423"/>
  </clipPath>
</defs>
<path clip-path="url(#clip910)" d="M247.408 1469.17 L2352.76 1469.17 L2352.76 47.2441 L247.408 47.2441  Z" fill="#ffffff" fill-rule="evenodd" fill-opacity="1"/>
<polyline clip-path="url(#clip911)" style="stroke:#000000; stroke-linecap:round; stroke-linejoin:round; stroke-width:2; stroke-opacity:0.1; fill:none" points="405.79,1469.17 405.79,47.2441 "/>
<polyline clip-path="url(#clip911)" style="stroke:#000000; stroke-linecap:round; stroke-linejoin:round; stroke-width:2; stroke-opacity:0.1; fill:none" points="852.936,1469.17 852.936,47.2441 "/>
<polyline clip-path="url(#clip911)" style="stroke:#000000; stroke-linecap:round; stroke-linejoin:round; stroke-width:2; stroke-opacity:0.1; fill:none" points="1300.08,1469.17 1300.08,47.2441 "/>
<polyline clip-path="url(#clip911)" style="stroke:#000000; stroke-linecap:round; stroke-linejoin:round; stroke-width:2; stroke-opacity:0.1; fill:none" points="1747.23,1469.17 1747.23,47.2441 "/>
<polyline clip-path="url(#clip911)" style="stroke:#000000; stroke-linecap:round; stroke-linejoin:round; stroke-width:2; stroke-opacity:0.1; fill:none" points="2194.37,1469.17 2194.37,47.2441 "/>
<polyline clip-path="url(#clip911)" style="stroke:#000000; stroke-linecap:round; stroke-linejoin:round; stroke-width:2; stroke-opacity:0.1; fill:none" points="247.408,1428.92 2352.76,1428.92 "/>
<polyline clip-path="url(#clip911)" style="stroke:#000000; stroke-linecap:round; stroke-linejoin:round; stroke-width:2; stroke-opacity:0.1; fill:none" points="247.408,1205.35 2352.76,1205.35 "/>
<polyline clip-path="url(#clip911)" style="stroke:#000000; stroke-linecap:round; stroke-linejoin:round; stroke-width:2; stroke-opacity:0.1; fill:none" points="247.408,981.779 2352.76,981.779 "/>
<polyline clip-path="url(#clip911)" style="stroke:#000000; stroke-linecap:round; stroke-linejoin:round; stroke-width:2; stroke-opacity:0.1; fill:none" points="247.408,758.206 2352.76,758.206 "/>
<polyline clip-path="url(#clip911)" style="stroke:#000000; stroke-linecap:round; stroke-linejoin:round; stroke-width:2; stroke-opacity:0.1; fill:none" points="247.408,534.633 2352.76,534.633 "/>
<polyline clip-path="url(#clip911)" style="stroke:#000000; stroke-linecap:round; stroke-linejoin:round; stroke-width:2; stroke-opacity:0.1; fill:none" points="247.408,311.06 2352.76,311.06 "/>
<polyline clip-path="url(#clip911)" style="stroke:#000000; stroke-linecap:round; stroke-linejoin:round; stroke-width:2; stroke-opacity:0.1; fill:none" points="247.408,87.4872 2352.76,87.4872 "/>
<polyline clip-path="url(#clip910)" style="stroke:#000000; stroke-linecap:round; stroke-linejoin:round; stroke-width:4; stroke-opacity:1; fill:none" points="247.408,1469.17 2352.76,1469.17 "/>
<polyline clip-path="url(#clip910)" style="stroke:#000000; stroke-linecap:round; stroke-linejoin:round; stroke-width:4; stroke-opacity:1; fill:none" points="405.79,1469.17 405.79,1450.27 "/>
<polyline clip-path="url(#clip910)" style="stroke:#000000; stroke-linecap:round; stroke-linejoin:round; stroke-width:4; stroke-opacity:1; fill:none" points="852.936,1469.17 852.936,1450.27 "/>
<polyline clip-path="url(#clip910)" style="stroke:#000000; stroke-linecap:round; stroke-linejoin:round; stroke-width:4; stroke-opacity:1; fill:none" points="1300.08,1469.17 1300.08,1450.27 "/>
<polyline clip-path="url(#clip910)" style="stroke:#000000; stroke-linecap:round; stroke-linejoin:round; stroke-width:4; stroke-opacity:1; fill:none" points="1747.23,1469.17 1747.23,1450.27 "/>
<polyline clip-path="url(#clip910)" style="stroke:#000000; stroke-linecap:round; stroke-linejoin:round; stroke-width:4; stroke-opacity:1; fill:none" points="2194.37,1469.17 2194.37,1450.27 "/>
<path clip-path="url(#clip910)" d="M360.704 1527.92 L405.217 1527.92 L405.217 1533.83 L360.704 1533.83 L360.704 1527.92 Z" fill="#000000" fill-rule="nonzero" fill-opacity="1" /><path clip-path="url(#clip910)" d="M426.398 1547.27 L450.877 1547.27 L450.877 1553.17 L417.96 1553.17 L417.96 1547.27 Q421.953 1543.13 428.828 1536.19 Q435.738 1529.21 437.509 1527.2 Q440.877 1523.41 442.196 1520.81 Q443.55 1518.17 443.55 1515.63 Q443.55 1511.5 440.634 1508.9 Q437.752 1506.29 433.099 1506.29 Q429.801 1506.29 426.12 1507.44 Q422.474 1508.58 418.308 1510.91 L418.308 1503.83 Q422.544 1502.13 426.224 1501.26 Q429.905 1500.39 432.96 1500.39 Q441.016 1500.39 445.807 1504.42 Q450.599 1508.45 450.599 1515.18 Q450.599 1518.38 449.384 1521.26 Q448.203 1524.11 445.043 1527.99 Q444.175 1529 439.523 1533.83 Q434.87 1538.62 426.398 1547.27 Z" fill="#000000" fill-rule="nonzero" fill-opacity="1" /><path clip-path="url(#clip910)" d="M807.572 1527.92 L852.085 1527.92 L852.085 1533.83 L807.572 1533.83 L807.572 1527.92 Z" fill="#000000" fill-rule="nonzero" fill-opacity="1" /><path clip-path="url(#clip910)" d="M868.439 1547.27 L879.898 1547.27 L879.898 1507.72 L867.433 1510.22 L867.433 1503.83 L879.828 1501.33 L886.842 1501.33 L886.842 1547.27 L898.3 1547.27 L898.3 1553.17 L868.439 1553.17 L868.439 1547.27 Z" fill="#000000" fill-rule="nonzero" fill-opacity="1" /><path clip-path="url(#clip910)" d="M1300.08 1505.95 Q1294.67 1505.95 1291.92 1511.29 Q1289.21 1516.61 1289.21 1527.3 Q1289.21 1537.96 1291.92 1543.31 Q1294.67 1548.62 1300.08 1548.62 Q1305.53 1548.62 1308.24 1543.31 Q1310.98 1537.96 1310.98 1527.3 Q1310.98 1516.61 1308.24 1511.29 Q1305.53 1505.95 1300.08 1505.95 M1300.08 1500.39 Q1308.8 1500.39 1313.38 1507.3 Q1318 1514.18 1318 1527.3 Q1318 1540.39 1313.38 1547.3 Q1308.8 1554.17 1300.08 1554.17 Q1291.37 1554.17 1286.75 1547.3 Q1282.17 1540.39 1282.17 1527.3 Q1282.17 1514.18 1286.75 1507.3 Q1291.37 1500.39 1300.08 1500.39 Z" fill="#000000" fill-rule="nonzero" fill-opacity="1" /><path clip-path="url(#clip910)" d="M1732.8 1547.27 L1744.26 1547.27 L1744.26 1507.72 L1731.79 1510.22 L1731.79 1503.83 L1744.19 1501.33 L1751.2 1501.33 L1751.2 1547.27 L1762.66 1547.27 L1762.66 1553.17 L1732.8 1553.17 L1732.8 1547.27 Z" fill="#000000" fill-rule="nonzero" fill-opacity="1" /><path clip-path="url(#clip910)" d="M2186.35 1547.27 L2210.83 1547.27 L2210.83 1553.17 L2177.92 1553.17 L2177.92 1547.27 Q2181.91 1543.13 2188.78 1536.19 Q2195.69 1529.21 2197.46 1527.2 Q2200.83 1523.41 2202.15 1520.81 Q2203.51 1518.17 2203.51 1515.63 Q2203.51 1511.5 2200.59 1508.9 Q2197.71 1506.29 2193.05 1506.29 Q2189.76 1506.29 2186.08 1507.44 Q2182.43 1508.58 2178.26 1510.91 L2178.26 1503.83 Q2182.5 1502.13 2186.18 1501.26 Q2189.86 1500.39 2192.92 1500.39 Q2200.97 1500.39 2205.76 1504.42 Q2210.55 1508.45 2210.55 1515.18 Q2210.55 1518.38 2209.34 1521.26 Q2208.16 1524.11 2205 1527.99 Q2204.13 1529 2199.48 1533.83 Q2194.82 1538.62 2186.35 1547.27 Z" fill="#000000" fill-rule="nonzero" fill-opacity="1" /><polyline clip-path="url(#clip910)" style="stroke:#000000; stroke-linecap:round; stroke-linejoin:round; stroke-width:4; stroke-opacity:1; fill:none" points="247.408,1469.17 247.408,47.2441 "/>
<polyline clip-path="url(#clip910)" style="stroke:#000000; stroke-linecap:round; stroke-linejoin:round; stroke-width:4; stroke-opacity:1; fill:none" points="247.408,1428.92 266.306,1428.92 "/>
<polyline clip-path="url(#clip910)" style="stroke:#000000; stroke-linecap:round; stroke-linejoin:round; stroke-width:4; stroke-opacity:1; fill:none" points="247.408,1205.35 266.306,1205.35 "/>
<polyline clip-path="url(#clip910)" style="stroke:#000000; stroke-linecap:round; stroke-linejoin:round; stroke-width:4; stroke-opacity:1; fill:none" points="247.408,981.779 266.306,981.779 "/>
<polyline clip-path="url(#clip910)" style="stroke:#000000; stroke-linecap:round; stroke-linejoin:round; stroke-width:4; stroke-opacity:1; fill:none" points="247.408,758.206 266.306,758.206 "/>
<polyline clip-path="url(#clip910)" style="stroke:#000000; stroke-linecap:round; stroke-linejoin:round; stroke-width:4; stroke-opacity:1; fill:none" points="247.408,534.633 266.306,534.633 "/>
<polyline clip-path="url(#clip910)" style="stroke:#000000; stroke-linecap:round; stroke-linejoin:round; stroke-width:4; stroke-opacity:1; fill:none" points="247.408,311.06 266.306,311.06 "/>
<polyline clip-path="url(#clip910)" style="stroke:#000000; stroke-linecap:round; stroke-linejoin:round; stroke-width:4; stroke-opacity:1; fill:none" points="247.408,87.4872 266.306,87.4872 "/>
<path clip-path="url(#clip910)" d="M52.4852 1429.6 L96.9988 1429.6 L96.9988 1435.5 L52.4852 1435.5 L52.4852 1429.6 Z" fill="#000000" fill-rule="nonzero" fill-opacity="1" /><path clip-path="url(#clip910)" d="M113.353 1448.94 L124.811 1448.94 L124.811 1409.39 L112.346 1411.89 L112.346 1405.5 L124.742 1403 L131.756 1403 L131.756 1448.94 L143.214 1448.94 L143.214 1454.84 L113.353 1454.84 L113.353 1448.94 Z" fill="#000000" fill-rule="nonzero" fill-opacity="1" /><path clip-path="url(#clip910)" d="M157.38 1446.03 L164.707 1446.03 L164.707 1454.84 L157.38 1454.84 L157.38 1446.03 Z" fill="#000000" fill-rule="nonzero" fill-opacity="1" /><path clip-path="url(#clip910)" d="M180.054 1403 L207.589 1403 L207.589 1408.91 L186.478 1408.91 L186.478 1421.62 Q188.005 1421.09 189.533 1420.85 Q191.061 1420.57 192.589 1420.57 Q201.269 1420.57 206.339 1425.33 Q211.408 1430.09 211.408 1438.21 Q211.408 1446.58 206.2 1451.23 Q200.991 1455.85 191.512 1455.85 Q188.248 1455.85 184.846 1455.3 Q181.478 1454.74 177.866 1453.63 L177.866 1446.58 Q180.991 1448.28 184.325 1449.12 Q187.658 1449.95 191.373 1449.95 Q197.38 1449.95 200.887 1446.79 Q204.394 1443.63 204.394 1438.21 Q204.394 1432.8 200.887 1429.64 Q197.38 1426.48 191.373 1426.48 Q188.561 1426.48 185.748 1427.1 Q182.971 1427.73 180.054 1429.05 L180.054 1403 Z" fill="#000000" fill-rule="nonzero" fill-opacity="1" /><path clip-path="url(#clip910)" d="M50.9921 1206.03 L95.5058 1206.03 L95.5058 1211.93 L50.9921 1211.93 L50.9921 1206.03 Z" fill="#000000" fill-rule="nonzero" fill-opacity="1" /><path clip-path="url(#clip910)" d="M111.86 1225.37 L123.318 1225.37 L123.318 1185.82 L110.853 1188.32 L110.853 1181.93 L123.249 1179.43 L130.263 1179.43 L130.263 1225.37 L141.721 1225.37 L141.721 1231.27 L111.86 1231.27 L111.86 1225.37 Z" fill="#000000" fill-rule="nonzero" fill-opacity="1" /><path clip-path="url(#clip910)" d="M155.887 1222.45 L163.214 1222.45 L163.214 1231.27 L155.887 1231.27 L155.887 1222.45 Z" fill="#000000" fill-rule="nonzero" fill-opacity="1" /><path clip-path="url(#clip910)" d="M193.491 1184.05 Q188.075 1184.05 185.332 1189.4 Q182.623 1194.71 182.623 1205.4 Q182.623 1216.06 185.332 1221.41 Q188.075 1226.72 193.491 1226.72 Q198.943 1226.72 201.651 1221.41 Q204.394 1216.06 204.394 1205.4 Q204.394 1194.71 201.651 1189.4 Q198.943 1184.05 193.491 1184.05 M193.491 1178.49 Q202.207 1178.49 206.79 1185.4 Q211.408 1192.28 211.408 1205.4 Q211.408 1218.49 206.79 1225.4 Q202.207 1232.28 193.491 1232.28 Q184.776 1232.28 180.158 1225.4 Q175.575 1218.49 175.575 1205.4 Q175.575 1192.28 180.158 1185.4 Q184.776 1178.49 193.491 1178.49 Z" fill="#000000" fill-rule="nonzero" fill-opacity="1" /><path clip-path="url(#clip910)" d="M52.4852 982.456 L96.9988 982.456 L96.9988 988.359 L52.4852 988.359 L52.4852 982.456 Z" fill="#000000" fill-rule="nonzero" fill-opacity="1" /><path clip-path="url(#clip910)" d="M127.138 960.477 Q121.721 960.477 118.978 965.824 Q116.27 971.137 116.27 981.831 Q116.27 992.491 118.978 997.838 Q121.721 1003.15 127.138 1003.15 Q132.589 1003.15 135.297 997.838 Q138.04 992.491 138.04 981.831 Q138.04 971.137 135.297 965.824 Q132.589 960.477 127.138 960.477 M127.138 954.921 Q135.853 954.921 140.436 961.831 Q145.054 968.706 145.054 981.831 Q145.054 994.921 140.436 1001.83 Q135.853 1008.71 127.138 1008.71 Q118.422 1008.71 113.804 1001.83 Q109.221 994.921 109.221 981.831 Q109.221 968.706 113.804 961.831 Q118.422 954.921 127.138 954.921 Z" fill="#000000" fill-rule="nonzero" fill-opacity="1" /><path clip-path="url(#clip910)" d="M157.38 998.88 L164.707 998.88 L164.707 1007.7 L157.38 1007.7 L157.38 998.88 Z" fill="#000000" fill-rule="nonzero" fill-opacity="1" /><path clip-path="url(#clip910)" d="M180.054 955.859 L207.589 955.859 L207.589 961.762 L186.478 961.762 L186.478 974.47 Q188.005 973.949 189.533 973.706 Q191.061 973.428 192.589 973.428 Q201.269 973.428 206.339 978.185 Q211.408 982.942 211.408 991.067 Q211.408 999.435 206.2 1004.09 Q200.991 1008.71 191.512 1008.71 Q188.248 1008.71 184.846 1008.15 Q181.478 1007.59 177.866 1006.48 L177.866 999.435 Q180.991 1001.14 184.325 1001.97 Q187.658 1002.8 191.373 1002.8 Q197.38 1002.8 200.887 999.643 Q204.394 996.484 204.394 991.067 Q204.394 985.65 200.887 982.491 Q197.38 979.331 191.373 979.331 Q188.561 979.331 185.748 979.956 Q182.971 980.581 180.054 981.9 L180.054 955.859 Z" fill="#000000" fill-rule="nonzero" fill-opacity="1" /><path clip-path="url(#clip910)" d="M125.645 736.904 Q120.228 736.904 117.485 742.251 Q114.777 747.564 114.777 758.258 Q114.777 768.918 117.485 774.265 Q120.228 779.577 125.645 779.577 Q131.096 779.577 133.804 774.265 Q136.547 768.918 136.547 758.258 Q136.547 747.564 133.804 742.251 Q131.096 736.904 125.645 736.904 M125.645 731.348 Q134.36 731.348 138.943 738.258 Q143.561 745.133 143.561 758.258 Q143.561 771.348 138.943 778.258 Q134.36 785.133 125.645 785.133 Q116.929 785.133 112.311 778.258 Q107.728 771.348 107.728 758.258 Q107.728 745.133 112.311 738.258 Q116.929 731.348 125.645 731.348 Z" fill="#000000" fill-rule="nonzero" fill-opacity="1" /><path clip-path="url(#clip910)" d="M155.887 775.307 L163.214 775.307 L163.214 784.126 L155.887 784.126 L155.887 775.307 Z" fill="#000000" fill-rule="nonzero" fill-opacity="1" /><path clip-path="url(#clip910)" d="M193.491 736.904 Q188.075 736.904 185.332 742.251 Q182.623 747.564 182.623 758.258 Q182.623 768.918 185.332 774.265 Q188.075 779.577 193.491 779.577 Q198.943 779.577 201.651 774.265 Q204.394 768.918 204.394 758.258 Q204.394 747.564 201.651 742.251 Q198.943 736.904 193.491 736.904 M193.491 731.348 Q202.207 731.348 206.79 738.258 Q211.408 745.133 211.408 758.258 Q211.408 771.348 206.79 778.258 Q202.207 785.133 193.491 785.133 Q184.776 785.133 180.158 778.258 Q175.575 771.348 175.575 758.258 Q175.575 745.133 180.158 738.258 Q184.776 731.348 193.491 731.348 Z" fill="#000000" fill-rule="nonzero" fill-opacity="1" /><path clip-path="url(#clip910)" d="M127.138 513.331 Q121.721 513.331 118.978 518.678 Q116.27 523.991 116.27 534.685 Q116.27 545.345 118.978 550.692 Q121.721 556.004 127.138 556.004 Q132.589 556.004 135.297 550.692 Q138.04 545.345 138.04 534.685 Q138.04 523.991 135.297 518.678 Q132.589 513.331 127.138 513.331 M127.138 507.776 Q135.853 507.776 140.436 514.685 Q145.054 521.56 145.054 534.685 Q145.054 547.775 140.436 554.685 Q135.853 561.56 127.138 561.56 Q118.422 561.56 113.804 554.685 Q109.221 547.775 109.221 534.685 Q109.221 521.56 113.804 514.685 Q118.422 507.776 127.138 507.776 Z" fill="#000000" fill-rule="nonzero" fill-opacity="1" /><path clip-path="url(#clip910)" d="M157.38 551.734 L164.707 551.734 L164.707 560.553 L157.38 560.553 L157.38 551.734 Z" fill="#000000" fill-rule="nonzero" fill-opacity="1" /><path clip-path="url(#clip910)" d="M180.054 508.713 L207.589 508.713 L207.589 514.616 L186.478 514.616 L186.478 527.324 Q188.005 526.803 189.533 526.56 Q191.061 526.282 192.589 526.282 Q201.269 526.282 206.339 531.039 Q211.408 535.796 211.408 543.921 Q211.408 552.289 206.2 556.942 Q200.991 561.56 191.512 561.56 Q188.248 561.56 184.846 561.004 Q181.478 560.449 177.866 559.338 L177.866 552.289 Q180.991 553.991 184.325 554.824 Q187.658 555.657 191.373 555.657 Q197.38 555.657 200.887 552.498 Q204.394 549.338 204.394 543.921 Q204.394 538.505 200.887 535.345 Q197.38 532.185 191.373 532.185 Q188.561 532.185 185.748 532.81 Q182.971 533.435 180.054 534.755 L180.054 508.713 Z" fill="#000000" fill-rule="nonzero" fill-opacity="1" /><path clip-path="url(#clip910)" d="M111.86 331.077 L123.318 331.077 L123.318 291.529 L110.853 294.029 L110.853 287.64 L123.249 285.14 L130.263 285.14 L130.263 331.077 L141.721 331.077 L141.721 336.98 L111.86 336.98 L111.86 331.077 Z" fill="#000000" fill-rule="nonzero" fill-opacity="1" /><path clip-path="url(#clip910)" d="M155.887 328.161 L163.214 328.161 L163.214 336.98 L155.887 336.98 L155.887 328.161 Z" fill="#000000" fill-rule="nonzero" fill-opacity="1" /><path clip-path="url(#clip910)" d="M193.491 289.758 Q188.075 289.758 185.332 295.105 Q182.623 300.418 182.623 311.112 Q182.623 321.772 185.332 327.119 Q188.075 332.432 193.491 332.432 Q198.943 332.432 201.651 327.119 Q204.394 321.772 204.394 311.112 Q204.394 300.418 201.651 295.105 Q198.943 289.758 193.491 289.758 M193.491 284.203 Q202.207 284.203 206.79 291.112 Q211.408 297.987 211.408 311.112 Q211.408 324.202 206.79 331.112 Q202.207 337.987 193.491 337.987 Q184.776 337.987 180.158 331.112 Q175.575 324.202 175.575 311.112 Q175.575 297.987 180.158 291.112 Q184.776 284.203 193.491 284.203 Z" fill="#000000" fill-rule="nonzero" fill-opacity="1" /><path clip-path="url(#clip910)" d="M113.353 107.504 L124.811 107.504 L124.811 67.9561 L112.346 70.4561 L112.346 64.0672 L124.742 61.5672 L131.756 61.5672 L131.756 107.504 L143.214 107.504 L143.214 113.407 L113.353 113.407 L113.353 107.504 Z" fill="#000000" fill-rule="nonzero" fill-opacity="1" /><path clip-path="url(#clip910)" d="M157.38 104.588 L164.707 104.588 L164.707 113.407 L157.38 113.407 L157.38 104.588 Z" fill="#000000" fill-rule="nonzero" fill-opacity="1" /><path clip-path="url(#clip910)" d="M180.054 61.5672 L207.589 61.5672 L207.589 67.47 L186.478 67.47 L186.478 80.1782 Q188.005 79.6574 189.533 79.4143 Q191.061 79.1366 192.589 79.1366 Q201.269 79.1366 206.339 83.8935 Q211.408 88.6504 211.408 96.7754 Q211.408 105.143 206.2 109.796 Q200.991 114.414 191.512 114.414 Q188.248 114.414 184.846 113.859 Q181.478 113.303 177.866 112.192 L177.866 105.143 Q180.991 106.845 184.325 107.678 Q187.658 108.511 191.373 108.511 Q197.38 108.511 200.887 105.352 Q204.394 102.192 204.394 96.7754 Q204.394 91.3587 200.887 88.199 Q197.38 85.0393 191.373 85.0393 Q188.561 85.0393 185.748 85.6643 Q182.971 86.2893 180.054 87.6087 L180.054 61.5672 Z" fill="#000000" fill-rule="nonzero" fill-opacity="1" /><path clip-path="url(#clip911)" d="M629.363 646.42 L852.936 311.06 L1439.81 87.4872 L1747.23 311.06 L1907.92 660.393 L1970.8 869.992 L1747.23 1205.35 L1160.35 1428.92 L852.936 1205.35 L692.243 856.019 L629.363 646.42 L629.363 646.42  Z" fill="#c72c48" fill-rule="evenodd" fill-opacity="1"/>
<polyline clip-path="url(#clip911)" style="stroke:#000000; stroke-linecap:round; stroke-linejoin:round; stroke-width:4; stroke-opacity:1; fill:none" points="629.363,646.42 852.936,311.06 1439.81,87.4872 1747.23,311.06 1907.92,660.393 1970.8,869.992 1747.23,1205.35 1160.35,1428.92 852.936,1205.35 692.243,856.019 629.363,646.42 "/>
<path clip-path="url(#clip911)" d="M629.363 646.42 L852.936 311.06 L1439.81 87.4872 L1747.23 311.06 L1970.8 869.992 L1747.23 1205.35 L1160.35 1428.92 L852.936 1205.35 L629.363 646.42 L629.363 646.42  Z" fill="#048b9a" fill-rule="evenodd" fill-opacity="1"/>
<polyline clip-path="url(#clip911)" style="stroke:#000000; stroke-linecap:round; stroke-linejoin:round; stroke-width:4; stroke-opacity:1; fill:none" points="629.363,646.42 852.936,311.06 1439.81,87.4872 1747.23,311.06 1970.8,869.992 1747.23,1205.35 1160.35,1428.92 852.936,1205.35 629.363,646.42 "/>
<path clip-path="url(#clip911)" d="M629.363 646.42 L852.936 311.06 L1747.23 311.06 L1970.8 869.992 L1747.23 1205.35 L852.936 1205.35 L629.363 646.42 L629.363 646.42  Z" fill="#ffcb60" fill-rule="evenodd" fill-opacity="1"/>
<polyline clip-path="url(#clip911)" style="stroke:#000000; stroke-linecap:round; stroke-linejoin:round; stroke-width:4; stroke-opacity:1; fill:none" points="629.363,646.42 852.936,311.06 1747.23,311.06 1970.8,869.992 1747.23,1205.35 852.936,1205.35 629.363,646.42 "/>
<path clip-path="url(#clip911)" d="M852.936 1205.35 L852.936 311.06 L1747.23 311.06 L1747.23 1205.35 L852.936 1205.35 L852.936 1205.35  Z" fill="#85c17e" fill-rule="evenodd" fill-opacity="1"/>
<polyline clip-path="url(#clip911)" style="stroke:#000000; stroke-linecap:round; stroke-linejoin:round; stroke-width:4; stroke-opacity:1; fill:none" points="852.936,1205.35 852.936,311.06 1747.23,311.06 1747.23,1205.35 852.936,1205.35 "/>
<path clip-path="url(#clip911)" d="M852.936 907.255 L852.936 311.06 L1449.13 311.06 L1747.23 609.157 L1747.23 1205.35 L1151.03 1205.35 L852.936 907.255 L852.936 907.255  Z" fill="#c72c48" fill-rule="evenodd" fill-opacity="1"/>
<polyline clip-path="url(#clip911)" style="stroke:#000000; stroke-linecap:round; stroke-linejoin:round; stroke-width:4; stroke-opacity:1; fill:none" points="852.936,907.255 852.936,311.06 1449.13,311.06 1747.23,609.157 1747.23,1205.35 1151.03,1205.35 852.936,907.255 "/>
</svg>
