<?xml version="1.0" encoding="utf-8"?>
<svg xmlns="http://www.w3.org/2000/svg" xmlns:xlink="http://www.w3.org/1999/xlink" width="600" height="400" viewBox="0 0 2400 1600">
<defs>
  <clipPath id="clip360">
    <rect x="0" y="0" width="2400" height="1600"/>
  </clipPath>
</defs>
<path clip-path="url(#clip360)" d="M0 1600 L2400 1600 L2400 0 L0 0  Z" fill="#ffffff" fill-rule="evenodd" fill-opacity="1"/>
<defs>
  <clipPath id="clip361">
    <rect x="247" y="47" width="2106" height="1423"/>
  </clipPath>
</defs>
<path clip-path="url(#clip360)" d="M247.408 1469.17 L2352.76 1469.17 L2352.76 47.2441 L247.408 47.2441  Z" fill="#ffffff" fill-rule="evenodd" fill-opacity="1"/>
<polyline clip-path="url(#clip361)" style="stroke:#000000; stroke-linecap:round; stroke-linejoin:round; stroke-width:2; stroke-opacity:0.1; fill:none" points="429.996,1469.17 429.996,47.2441 "/>
<polyline clip-path="url(#clip361)" style="stroke:#000000; stroke-linecap:round; stroke-linejoin:round; stroke-width:2; stroke-opacity:0.1; fill:none" points="720.024,1469.17 720.024,47.2441 "/>
<polyline clip-path="url(#clip361)" style="stroke:#000000; stroke-linecap:round; stroke-linejoin:round; stroke-width:2; stroke-opacity:0.1; fill:none" points="1010.05,1469.17 1010.05,47.2441 "/>
<polyline clip-path="url(#clip361)" style="stroke:#000000; stroke-linecap:round; stroke-linejoin:round; stroke-width:2; stroke-opacity:0.1; fill:none" points="1300.08,1469.17 1300.08,47.2441 "/>
<polyline clip-path="url(#clip361)" style="stroke:#000000; stroke-linecap:round; stroke-linejoin:round; stroke-width:2; stroke-opacity:0.1; fill:none" points="1590.11,1469.17 1590.11,47.2441 "/>
<polyline clip-path="url(#clip361)" style="stroke:#000000; stroke-linecap:round; stroke-linejoin:round; stroke-width:2; stroke-opacity:0.1; fill:none" points="1880.14,1469.17 1880.14,47.2441 "/>
<polyline clip-path="url(#clip361)" style="stroke:#000000; stroke-linecap:round; stroke-linejoin:round; stroke-width:2; stroke-opacity:0.1; fill:none" points="2170.17,1469.17 2170.17,47.2441 "/>
<polyline clip-path="url(#clip361)" style="stroke:#000000; stroke-linecap:round; stroke-linejoin:round; stroke-width:2; stroke-opacity:0.1; fill:none" points="247.408,1338.26 2352.76,1338.26 "/>
<polyline clip-path="url(#clip361)" style="stroke:#000000; stroke-linecap:round; stroke-linejoin:round; stroke-width:2; stroke-opacity:0.1; fill:none" points="247.408,1048.23 2352.76,1048.23 "/>
<polyline clip-path="url(#clip361)" style="stroke:#000000; stroke-linecap:round; stroke-linejoin:round; stroke-width:2; stroke-opacity:0.1; fill:none" points="247.408,758.206 2352.76,758.206 "/>
<polyline clip-path="url(#clip361)" style="stroke:#000000; stroke-linecap:round; stroke-linejoin:round; stroke-width:2; stroke-opacity:0.1; fill:none" points="247.408,468.177 2352.76,468.177 "/>
<polyline clip-path="url(#clip361)" style="stroke:#000000; stroke-linecap:round; stroke-linejoin:round; stroke-width:2; stroke-opacity:0.1; fill:none" points="247.408,178.148 2352.76,178.148 "/>
<polyline clip-path="url(#clip360)" style="stroke:#000000; stroke-linecap:round; stroke-linejoin:round; stroke-width:4; stroke-opacity:1; fill:none" points="247.408,1469.17 2352.76,1469.17 "/>
<polyline clip-path="url(#clip360)" style="stroke:#000000; stroke-linecap:round; stroke-linejoin:round; stroke-width:4; stroke-opacity:1; fill:none" points="429.996,1469.17 429.996,1450.27 "/>
<polyline clip-path="url(#clip360)" style="stroke:#000000; stroke-linecap:round; stroke-linejoin:round; stroke-width:4; stroke-opacity:1; fill:none" points="720.024,1469.17 720.024,1450.27 "/>
<polyline clip-path="url(#clip360)" style="stroke:#000000; stroke-linecap:round; stroke-linejoin:round; stroke-width:4; stroke-opacity:1; fill:none" points="1010.05,1469.17 1010.05,1450.27 "/>
<polyline clip-path="url(#clip360)" style="stroke:#000000; stroke-linecap:round; stroke-linejoin:round; stroke-width:4; stroke-opacity:1; fill:none" points="1300.08,1469.17 1300.08,1450.27 "/>
<polyline clip-path="url(#clip360)" style="stroke:#000000; stroke-linecap:round; stroke-linejoin:round; stroke-width:4; stroke-opacity:1; fill:none" points="1590.11,1469.17 1590.11,1450.27 "/>
<polyline clip-path="url(#clip360)" style="stroke:#000000; stroke-linecap:round; stroke-linejoin:round; stroke-width:4; stroke-opacity:1; fill:none" points="1880.14,1469.17 1880.14,1450.27 "/>
<polyline clip-path="url(#clip360)" style="stroke:#000000; stroke-linecap:round; stroke-linejoin:round; stroke-width:4; stroke-opacity:1; fill:none" points="2170.17,1469.17 2170.17,1450.27 "/>
<path clip-path="url(#clip360)" d="M350.534 1527.92 L395.048 1527.92 L395.048 1533.83 L350.534 1533.83 L350.534 1527.92 Z" fill="#000000" fill-rule="nonzero" fill-opacity="1" /><path clip-path="url(#clip360)" d="M411.402 1547.27 L422.86 1547.27 L422.86 1507.72 L410.395 1510.22 L410.395 1503.83 L422.791 1501.33 L429.805 1501.33 L429.805 1547.27 L441.263 1547.27 L441.263 1553.17 L411.402 1553.17 L411.402 1547.27 Z" fill="#000000" fill-rule="nonzero" fill-opacity="1" /><path clip-path="url(#clip360)" d="M455.429 1544.35 L462.756 1544.35 L462.756 1553.17 L455.429 1553.17 L455.429 1544.35 Z" fill="#000000" fill-rule="nonzero" fill-opacity="1" /><path clip-path="url(#clip360)" d="M478.103 1501.33 L505.638 1501.33 L505.638 1507.23 L484.527 1507.23 L484.527 1519.94 Q486.054 1519.42 487.582 1519.18 Q489.11 1518.9 490.638 1518.9 Q499.318 1518.9 504.388 1523.65 Q509.457 1528.41 509.457 1536.54 Q509.457 1544.9 504.249 1549.56 Q499.04 1554.17 489.561 1554.17 Q486.297 1554.17 482.895 1553.62 Q479.527 1553.06 475.915 1551.95 L475.915 1544.9 Q479.04 1546.61 482.374 1547.44 Q485.707 1548.27 489.422 1548.27 Q495.429 1548.27 498.936 1545.11 Q502.443 1541.95 502.443 1536.54 Q502.443 1531.12 498.936 1527.96 Q495.429 1524.8 489.422 1524.8 Q486.61 1524.8 483.797 1525.42 Q481.02 1526.05 478.103 1527.37 L478.103 1501.33 Z" fill="#000000" fill-rule="nonzero" fill-opacity="1" /><path clip-path="url(#clip360)" d="M639.816 1527.92 L684.33 1527.92 L684.33 1533.83 L639.816 1533.83 L639.816 1527.92 Z" fill="#000000" fill-rule="nonzero" fill-opacity="1" /><path clip-path="url(#clip360)" d="M700.684 1547.27 L712.142 1547.27 L712.142 1507.72 L699.677 1510.22 L699.677 1503.83 L712.073 1501.33 L719.087 1501.33 L719.087 1547.27 L730.545 1547.27 L730.545 1553.17 L700.684 1553.17 L700.684 1547.27 Z" fill="#000000" fill-rule="nonzero" fill-opacity="1" /><path clip-path="url(#clip360)" d="M744.712 1544.35 L752.038 1544.35 L752.038 1553.17 L744.712 1553.17 L744.712 1544.35 Z" fill="#000000" fill-rule="nonzero" fill-opacity="1" /><path clip-path="url(#clip360)" d="M782.316 1505.95 Q776.899 1505.95 774.156 1511.29 Q771.448 1516.61 771.448 1527.3 Q771.448 1537.96 774.156 1543.31 Q776.899 1548.62 782.316 1548.62 Q787.767 1548.62 790.475 1543.31 Q793.218 1537.96 793.218 1527.3 Q793.218 1516.61 790.475 1511.29 Q787.767 1505.95 782.316 1505.95 M782.316 1500.39 Q791.031 1500.39 795.614 1507.3 Q800.232 1514.18 800.232 1527.3 Q800.232 1540.39 795.614 1547.3 Q791.031 1554.17 782.316 1554.17 Q773.6 1554.17 768.982 1547.3 Q764.399 1540.39 764.399 1527.3 Q764.399 1514.18 768.982 1507.3 Q773.6 1500.39 782.316 1500.39 Z" fill="#000000" fill-rule="nonzero" fill-opacity="1" /><path clip-path="url(#clip360)" d="M930.592 1527.92 L975.105 1527.92 L975.105 1533.83 L930.592 1533.83 L930.592 1527.92 Z" fill="#000000" fill-rule="nonzero" fill-opacity="1" /><path clip-path="url(#clip360)" d="M1005.24 1505.95 Q999.827 1505.95 997.084 1511.29 Q994.376 1516.61 994.376 1527.3 Q994.376 1537.96 997.084 1543.31 Q999.827 1548.62 1005.24 1548.62 Q1010.7 1548.62 1013.4 1543.31 Q1016.15 1537.96 1016.15 1527.3 Q1016.15 1516.61 1013.4 1511.29 Q1010.7 1505.95 1005.24 1505.95 M1005.24 1500.39 Q1013.96 1500.39 1018.54 1507.3 Q1023.16 1514.18 1023.16 1527.3 Q1023.16 1540.39 1018.54 1547.3 Q1013.96 1554.17 1005.24 1554.17 Q996.529 1554.17 991.911 1547.3 Q987.328 1540.39 987.328 1527.3 Q987.328 1514.18 991.911 1507.3 Q996.529 1500.39 1005.24 1500.39 Z" fill="#000000" fill-rule="nonzero" fill-opacity="1" /><path clip-path="url(#clip360)" d="M1035.49 1544.35 L1042.81 1544.35 L1042.81 1553.17 L1035.49 1553.17 L1035.49 1544.35 Z" fill="#000000" fill-rule="nonzero" fill-opacity="1" /><path clip-path="url(#clip360)" d="M1058.16 1501.33 L1085.7 1501.33 L1085.7 1507.23 L1064.58 1507.23 L1064.58 1519.94 Q1066.11 1519.42 1067.64 1519.18 Q1069.17 1518.9 1070.7 1518.9 Q1079.38 1518.9 1084.45 1523.65 Q1089.51 1528.41 1089.51 1536.54 Q1089.51 1544.9 1084.31 1549.56 Q1079.1 1554.17 1069.62 1554.17 Q1066.35 1554.17 1062.95 1553.62 Q1059.58 1553.06 1055.97 1551.95 L1055.97 1544.9 Q1059.1 1546.61 1062.43 1547.44 Q1065.76 1548.27 1069.48 1548.27 Q1075.49 1548.27 1078.99 1545.11 Q1082.5 1541.95 1082.5 1536.54 Q1082.5 1531.12 1078.99 1527.96 Q1075.49 1524.8 1069.48 1524.8 Q1066.67 1524.8 1063.85 1525.42 Q1061.08 1526.05 1058.16 1527.37 L1058.16 1501.33 Z" fill="#000000" fill-rule="nonzero" fill-opacity="1" /><path clip-path="url(#clip360)" d="M1266.16 1505.95 Q1260.74 1505.95 1258 1511.29 Q1255.29 1516.61 1255.29 1527.3 Q1255.29 1537.96 1258 1543.31 Q1260.74 1548.62 1266.16 1548.62 Q1271.61 1548.62 1274.32 1543.31 Q1277.06 1537.96 1277.06 1527.3 Q1277.06 1516.61 1274.32 1511.29 Q1271.61 1505.95 1266.16 1505.95 M1266.16 1500.39 Q1274.87 1500.39 1279.46 1507.3 Q1284.08 1514.18 1284.08 1527.3 Q1284.08 1540.39 1279.46 1547.3 Q1274.87 1554.17 1266.16 1554.17 Q1257.44 1554.17 1252.83 1547.3 Q1248.24 1540.39 1248.24 1527.3 Q1248.24 1514.18 1252.83 1507.3 Q1257.44 1500.39 1266.16 1500.39 Z" fill="#000000" fill-rule="nonzero" fill-opacity="1" /><path clip-path="url(#clip360)" d="M1296.4 1544.35 L1303.73 1544.35 L1303.73 1553.17 L1296.4 1553.17 L1296.4 1544.35 Z" fill="#000000" fill-rule="nonzero" fill-opacity="1" /><path clip-path="url(#clip360)" d="M1334.01 1505.95 Q1328.59 1505.95 1325.85 1511.29 Q1323.14 1516.61 1323.14 1527.3 Q1323.14 1537.96 1325.85 1543.31 Q1328.59 1548.62 1334.01 1548.62 Q1339.46 1548.62 1342.17 1543.31 Q1344.91 1537.96 1344.91 1527.3 Q1344.91 1516.61 1342.17 1511.29 Q1339.46 1505.95 1334.01 1505.95 M1334.01 1500.39 Q1342.72 1500.39 1347.3 1507.3 Q1351.92 1514.18 1351.92 1527.3 Q1351.92 1540.39 1347.3 1547.3 Q1342.72 1554.17 1334.01 1554.17 Q1325.29 1554.17 1320.67 1547.3 Q1316.09 1540.39 1316.09 1527.3 Q1316.09 1514.18 1320.67 1507.3 Q1325.29 1500.39 1334.01 1500.39 Z" fill="#000000" fill-rule="nonzero" fill-opacity="1" /><path clip-path="url(#clip360)" d="M1556.93 1505.95 Q1551.52 1505.95 1548.77 1511.29 Q1546.07 1516.61 1546.07 1527.3 Q1546.07 1537.96 1548.77 1543.31 Q1551.52 1548.62 1556.93 1548.62 Q1562.39 1548.62 1565.09 1543.31 Q1567.84 1537.96 1567.84 1527.3 Q1567.84 1516.61 1565.09 1511.29 Q1562.39 1505.95 1556.93 1505.95 M1556.93 1500.39 Q1565.65 1500.39 1570.23 1507.3 Q1574.85 1514.18 1574.85 1527.3 Q1574.85 1540.39 1570.23 1547.3 Q1565.65 1554.17 1556.93 1554.17 Q1548.22 1554.17 1543.6 1547.3 Q1539.02 1540.39 1539.02 1527.3 Q1539.02 1514.18 1543.6 1507.3 Q1548.22 1500.39 1556.93 1500.39 Z" fill="#000000" fill-rule="nonzero" fill-opacity="1" /><path clip-path="url(#clip360)" d="M1587.18 1544.35 L1594.5 1544.35 L1594.5 1553.17 L1587.18 1553.17 L1587.18 1544.35 Z" fill="#000000" fill-rule="nonzero" fill-opacity="1" /><path clip-path="url(#clip360)" d="M1609.85 1501.33 L1637.38 1501.33 L1637.38 1507.23 L1616.27 1507.23 L1616.27 1519.94 Q1617.8 1519.42 1619.33 1519.18 Q1620.86 1518.9 1622.38 1518.9 Q1631.07 1518.9 1636.13 1523.65 Q1641.2 1528.41 1641.2 1536.54 Q1641.2 1544.9 1636 1549.56 Q1630.79 1554.17 1621.31 1554.17 Q1618.04 1554.17 1614.64 1553.62 Q1611.27 1553.06 1607.66 1551.95 L1607.66 1544.9 Q1610.79 1546.61 1614.12 1547.44 Q1617.45 1548.27 1621.17 1548.27 Q1627.18 1548.27 1630.68 1545.11 Q1634.19 1541.95 1634.19 1536.54 Q1634.19 1531.12 1630.68 1527.96 Q1627.18 1524.8 1621.17 1524.8 Q1618.36 1524.8 1615.54 1525.42 Q1612.77 1526.05 1609.85 1527.37 L1609.85 1501.33 Z" fill="#000000" fill-rule="nonzero" fill-opacity="1" /><path clip-path="url(#clip360)" d="M1830.87 1547.27 L1842.33 1547.27 L1842.33 1507.72 L1829.86 1510.22 L1829.86 1503.83 L1842.26 1501.33 L1849.27 1501.33 L1849.27 1547.27 L1860.73 1547.27 L1860.73 1553.17 L1830.87 1553.17 L1830.87 1547.27 Z" fill="#000000" fill-rule="nonzero" fill-opacity="1" /><path clip-path="url(#clip360)" d="M1874.9 1544.35 L1882.22 1544.35 L1882.22 1553.17 L1874.9 1553.17 L1874.9 1544.35 Z" fill="#000000" fill-rule="nonzero" fill-opacity="1" /><path clip-path="url(#clip360)" d="M1912.5 1505.95 Q1907.08 1505.95 1904.34 1511.29 Q1901.63 1516.61 1901.63 1527.3 Q1901.63 1537.96 1904.34 1543.31 Q1907.08 1548.62 1912.5 1548.62 Q1917.95 1548.62 1920.66 1543.31 Q1923.4 1537.96 1923.4 1527.3 Q1923.4 1516.61 1920.66 1511.29 Q1917.95 1505.95 1912.5 1505.95 M1912.5 1500.39 Q1921.22 1500.39 1925.8 1507.3 Q1930.42 1514.18 1930.42 1527.3 Q1930.42 1540.39 1925.8 1547.3 Q1921.22 1554.17 1912.5 1554.17 Q1903.79 1554.17 1899.17 1547.3 Q1894.58 1540.39 1894.58 1527.3 Q1894.58 1514.18 1899.17 1507.3 Q1903.79 1500.39 1912.5 1500.39 Z" fill="#000000" fill-rule="nonzero" fill-opacity="1" /><path clip-path="url(#clip360)" d="M2121.64 1547.27 L2133.1 1547.27 L2133.1 1507.72 L2120.64 1510.22 L2120.64 1503.83 L2133.03 1501.33 L2140.05 1501.33 L2140.05 1547.27 L2151.51 1547.27 L2151.51 1553.17 L2121.64 1553.17 L2121.64 1547.27 Z" fill="#000000" fill-rule="nonzero" fill-opacity="1" /><path clip-path="url(#clip360)" d="M2165.67 1544.35 L2173 1544.35 L2173 1553.17 L2165.67 1553.17 L2165.67 1544.35 Z" fill="#000000" fill-rule="nonzero" fill-opacity="1" /><path clip-path="url(#clip360)" d="M2188.35 1501.33 L2215.88 1501.33 L2215.88 1507.23 L2194.77 1507.23 L2194.77 1519.94 Q2196.3 1519.42 2197.82 1519.18 Q2199.35 1518.9 2200.88 1518.9 Q2209.56 1518.9 2214.63 1523.65 Q2219.7 1528.41 2219.7 1536.54 Q2219.7 1544.9 2214.49 1549.56 Q2209.28 1554.17 2199.8 1554.17 Q2196.54 1554.17 2193.14 1553.62 Q2189.77 1553.06 2186.16 1551.95 L2186.16 1544.9 Q2189.28 1546.61 2192.62 1547.44 Q2195.95 1548.27 2199.66 1548.27 Q2205.67 1548.27 2209.18 1545.11 Q2212.69 1541.95 2212.69 1536.54 Q2212.69 1531.12 2209.18 1527.96 Q2205.67 1524.8 2199.66 1524.8 Q2196.85 1524.8 2194.04 1525.42 Q2191.26 1526.05 2188.35 1527.37 L2188.35 1501.33 Z" fill="#000000" fill-rule="nonzero" fill-opacity="1" /><polyline clip-path="url(#clip360)" style="stroke:#000000; stroke-linecap:round; stroke-linejoin:round; stroke-width:4; stroke-opacity:1; fill:none" points="247.408,1469.17 247.408,47.2441 "/>
<polyline clip-path="url(#clip360)" style="stroke:#000000; stroke-linecap:round; stroke-linejoin:round; stroke-width:4; stroke-opacity:1; fill:none" points="247.408,1338.26 266.306,1338.26 "/>
<polyline clip-path="url(#clip360)" style="stroke:#000000; stroke-linecap:round; stroke-linejoin:round; stroke-width:4; stroke-opacity:1; fill:none" points="247.408,1048.23 266.306,1048.23 "/>
<polyline clip-path="url(#clip360)" style="stroke:#000000; stroke-linecap:round; stroke-linejoin:round; stroke-width:4; stroke-opacity:1; fill:none" points="247.408,758.206 266.306,758.206 "/>
<polyline clip-path="url(#clip360)" style="stroke:#000000; stroke-linecap:round; stroke-linejoin:round; stroke-width:4; stroke-opacity:1; fill:none" points="247.408,468.177 266.306,468.177 "/>
<polyline clip-path="url(#clip360)" style="stroke:#000000; stroke-linecap:round; stroke-linejoin:round; stroke-width:4; stroke-opacity:1; fill:none" points="247.408,178.148 266.306,178.148 "/>
<path clip-path="url(#clip360)" d="M50.9921 1338.94 L95.5058 1338.94 L95.5058 1344.84 L50.9921 1344.84 L50.9921 1338.94 Z" fill="#000000" fill-rule="nonzero" fill-opacity="1" /><path clip-path="url(#clip360)" d="M111.86 1358.28 L123.318 1358.28 L123.318 1318.73 L110.853 1321.23 L110.853 1314.84 L123.249 1312.34 L130.263 1312.34 L130.263 1358.28 L141.721 1358.28 L141.721 1364.18 L111.86 1364.18 L111.86 1358.28 Z" fill="#000000" fill-rule="nonzero" fill-opacity="1" /><path clip-path="url(#clip360)" d="M155.887 1355.36 L163.214 1355.36 L163.214 1364.18 L155.887 1364.18 L155.887 1355.36 Z" fill="#000000" fill-rule="nonzero" fill-opacity="1" /><path clip-path="url(#clip360)" d="M193.491 1316.96 Q188.075 1316.96 185.332 1322.31 Q182.623 1327.62 182.623 1338.32 Q182.623 1348.98 185.332 1354.32 Q188.075 1359.63 193.491 1359.63 Q198.943 1359.63 201.651 1354.32 Q204.394 1348.98 204.394 1338.32 Q204.394 1327.62 201.651 1322.31 Q198.943 1316.96 193.491 1316.96 M193.491 1311.41 Q202.207 1311.41 206.79 1318.32 Q211.408 1325.19 211.408 1338.32 Q211.408 1351.41 206.79 1358.32 Q202.207 1365.19 193.491 1365.19 Q184.776 1365.19 180.158 1358.32 Q175.575 1351.41 175.575 1338.32 Q175.575 1325.19 180.158 1318.32 Q184.776 1311.41 193.491 1311.41 Z" fill="#000000" fill-rule="nonzero" fill-opacity="1" /><path clip-path="url(#clip360)" d="M52.4852 1048.91 L96.9988 1048.91 L96.9988 1054.81 L52.4852 1054.81 L52.4852 1048.91 Z" fill="#000000" fill-rule="nonzero" fill-opacity="1" /><path clip-path="url(#clip360)" d="M127.138 1026.93 Q121.721 1026.93 118.978 1032.28 Q116.27 1037.59 116.27 1048.29 Q116.27 1058.95 118.978 1064.29 Q121.721 1069.61 127.138 1069.61 Q132.589 1069.61 135.297 1064.29 Q138.04 1058.95 138.04 1048.29 Q138.04 1037.59 135.297 1032.28 Q132.589 1026.93 127.138 1026.93 M127.138 1021.38 Q135.853 1021.38 140.436 1028.29 Q145.054 1035.16 145.054 1048.29 Q145.054 1061.38 140.436 1068.29 Q135.853 1075.16 127.138 1075.16 Q118.422 1075.16 113.804 1068.29 Q109.221 1061.38 109.221 1048.29 Q109.221 1035.16 113.804 1028.29 Q118.422 1021.38 127.138 1021.38 Z" fill="#000000" fill-rule="nonzero" fill-opacity="1" /><path clip-path="url(#clip360)" d="M157.38 1065.34 L164.707 1065.34 L164.707 1074.15 L157.38 1074.15 L157.38 1065.34 Z" fill="#000000" fill-rule="nonzero" fill-opacity="1" /><path clip-path="url(#clip360)" d="M180.054 1022.31 L207.589 1022.31 L207.589 1028.22 L186.478 1028.22 L186.478 1040.93 Q188.005 1040.4 189.533 1040.16 Q191.061 1039.88 192.589 1039.88 Q201.269 1039.88 206.339 1044.64 Q211.408 1049.4 211.408 1057.52 Q211.408 1065.89 206.2 1070.54 Q200.991 1075.16 191.512 1075.16 Q188.248 1075.16 184.846 1074.61 Q181.478 1074.05 177.866 1072.94 L177.866 1065.89 Q180.991 1067.59 184.325 1068.43 Q187.658 1069.26 191.373 1069.26 Q197.38 1069.26 200.887 1066.1 Q204.394 1062.94 204.394 1057.52 Q204.394 1052.11 200.887 1048.95 Q197.38 1045.79 191.373 1045.79 Q188.561 1045.79 185.748 1046.41 Q182.971 1047.04 180.054 1048.36 L180.054 1022.31 Z" fill="#000000" fill-rule="nonzero" fill-opacity="1" /><path clip-path="url(#clip360)" d="M125.645 736.904 Q120.228 736.904 117.485 742.251 Q114.777 747.564 114.777 758.258 Q114.777 768.918 117.485 774.265 Q120.228 779.577 125.645 779.577 Q131.096 779.577 133.804 774.265 Q136.547 768.918 136.547 758.258 Q136.547 747.564 133.804 742.251 Q131.096 736.904 125.645 736.904 M125.645 731.348 Q134.36 731.348 138.943 738.258 Q143.561 745.133 143.561 758.258 Q143.561 771.348 138.943 778.258 Q134.36 785.133 125.645 785.133 Q116.929 785.133 112.311 778.258 Q107.728 771.348 107.728 758.258 Q107.728 745.133 112.311 738.258 Q116.929 731.348 125.645 731.348 Z" fill="#000000" fill-rule="nonzero" fill-opacity="1" /><path clip-path="url(#clip360)" d="M155.887 775.307 L163.214 775.307 L163.214 784.126 L155.887 784.126 L155.887 775.307 Z" fill="#000000" fill-rule="nonzero" fill-opacity="1" /><path clip-path="url(#clip360)" d="M193.491 736.904 Q188.075 736.904 185.332 742.251 Q182.623 747.564 182.623 758.258 Q182.623 768.918 185.332 774.265 Q188.075 779.577 193.491 779.577 Q198.943 779.577 201.651 774.265 Q204.394 768.918 204.394 758.258 Q204.394 747.564 201.651 742.251 Q198.943 736.904 193.491 736.904 M193.491 731.348 Q202.207 731.348 206.79 738.258 Q211.408 745.133 211.408 758.258 Q211.408 771.348 206.79 778.258 Q202.207 785.133 193.491 785.133 Q184.776 785.133 180.158 778.258 Q175.575 771.348 175.575 758.258 Q175.575 745.133 180.158 738.258 Q184.776 731.348 193.491 731.348 Z" fill="#000000" fill-rule="nonzero" fill-opacity="1" /><path clip-path="url(#clip360)" d="M127.138 446.875 Q121.721 446.875 118.978 452.222 Q116.27 457.535 116.27 468.229 Q116.27 478.889 118.978 484.236 Q121.721 489.549 127.138 489.549 Q132.589 489.549 135.297 484.236 Q138.04 478.889 138.04 468.229 Q138.04 457.535 135.297 452.222 Q132.589 446.875 127.138 446.875 M127.138 441.32 Q135.853 441.32 140.436 448.229 Q145.054 455.104 145.054 468.229 Q145.054 481.319 140.436 488.229 Q135.853 495.104 127.138 495.104 Q118.422 495.104 113.804 488.229 Q109.221 481.319 109.221 468.229 Q109.221 455.104 113.804 448.229 Q118.422 441.32 127.138 441.32 Z" fill="#000000" fill-rule="nonzero" fill-opacity="1" /><path clip-path="url(#clip360)" d="M157.38 485.278 L164.707 485.278 L164.707 494.097 L157.38 494.097 L157.38 485.278 Z" fill="#000000" fill-rule="nonzero" fill-opacity="1" /><path clip-path="url(#clip360)" d="M180.054 442.257 L207.589 442.257 L207.589 448.16 L186.478 448.16 L186.478 460.868 Q188.005 460.347 189.533 460.104 Q191.061 459.827 192.589 459.827 Q201.269 459.827 206.339 464.583 Q211.408 469.34 211.408 477.465 Q211.408 485.833 206.2 490.486 Q200.991 495.104 191.512 495.104 Q188.248 495.104 184.846 494.549 Q181.478 493.993 177.866 492.882 L177.866 485.833 Q180.991 487.535 184.325 488.368 Q187.658 489.201 191.373 489.201 Q197.38 489.201 200.887 486.042 Q204.394 482.882 204.394 477.465 Q204.394 472.049 200.887 468.889 Q197.38 465.729 191.373 465.729 Q188.561 465.729 185.748 466.354 Q182.971 466.979 180.054 468.299 L180.054 442.257 Z" fill="#000000" fill-rule="nonzero" fill-opacity="1" /><path clip-path="url(#clip360)" d="M111.86 198.166 L123.318 198.166 L123.318 158.617 L110.853 161.117 L110.853 154.728 L123.249 152.228 L130.263 152.228 L130.263 198.166 L141.721 198.166 L141.721 204.068 L111.86 204.068 L111.86 198.166 Z" fill="#000000" fill-rule="nonzero" fill-opacity="1" /><path clip-path="url(#clip360)" d="M155.887 195.249 L163.214 195.249 L163.214 204.068 L155.887 204.068 L155.887 195.249 Z" fill="#000000" fill-rule="nonzero" fill-opacity="1" /><path clip-path="url(#clip360)" d="M193.491 156.846 Q188.075 156.846 185.332 162.194 Q182.623 167.506 182.623 178.2 Q182.623 188.86 185.332 194.207 Q188.075 199.52 193.491 199.52 Q198.943 199.52 201.651 194.207 Q204.394 188.86 204.394 178.2 Q204.394 167.506 201.651 162.194 Q198.943 156.846 193.491 156.846 M193.491 151.291 Q202.207 151.291 206.79 158.201 Q211.408 165.076 211.408 178.2 Q211.408 191.291 206.79 198.2 Q202.207 205.075 193.491 205.075 Q184.776 205.075 180.158 198.2 Q175.575 191.291 175.575 178.2 Q175.575 165.076 180.158 158.201 Q184.776 151.291 193.491 151.291 Z" fill="#000000" fill-rule="nonzero" fill-opacity="1" /><path clip-path="url(#clip361)" d="M1880.14 758.206 L1892.52 743.662 L1904.86 728.495 L1916.99 712.7 L1928.67 696.296 L1939.61 679.328 L1949.46 661.88 L1957.84 644.073 L1964.4 626.066 L1968.79 608.043 L1970.8 590.2 L1970.35 572.717 L1967.52 555.74 L1962.52 539.367 L1955.65 523.64 L1947.27 508.559 L1937.72 494.086 L1927.33 480.166 L1916.35 466.731 L1905 453.713 L1893.44 441.049 L1881.77 428.682 L1870.08 416.56 L1858.42 404.642 L1846.81 392.892 L1835.27 381.281 L1823.81 369.782 L1812.42 358.374 L1801.09 347.039 L1789.81 335.761 L1778.58 324.524 L1767.37 313.314 L1756.17 302.117 L1744.97 290.921 L1733.76 279.711 L1722.53 268.475 L1711.25 257.198 L1699.91 245.869 L1688.51 234.476 L1677.01 223.013 L1665.4 211.475 L1653.65 199.868 L1641.73 188.204 L1629.61 176.514 L1617.24 164.848 L1604.57 153.283 L1591.56 141.933 L1578.12 130.957 L1564.2 120.564 L1549.73 111.019 L1534.65 102.638 L1518.92 95.7702 L1502.55 90.7667 L1485.57 87.9349 L1468.09 87.4872 L1450.25 89.4992 L1432.22 93.8916 L1414.21 100.444 L1396.41 108.832 L1378.96 118.682 L1361.99 129.618 L1345.59 141.296 L1329.79 153.423 L1314.63 165.767 L1300.08 178.148 L1286.14 190.439 L1272.78 202.547 L1259.97 214.414 L1247.66 226.003 L1235.83 237.295 L1224.44 248.281 L1213.46 258.964 L1202.84 269.35 L1192.57 279.45 L1182.62 289.278 L1172.96 298.847 L1163.57 308.174 L1154.42 317.274 L1145.49 326.162 L1136.78 334.854 L1128.25 343.365 L1119.89 351.708 L1111.7 359.897 L1103.64 367.946 L1095.72 375.867 L1087.91 383.671 L1080.21 391.371 L1072.6 398.977 L1065.08 406.5 L1057.63 413.95 L1050.24 421.336 L1042.91 428.67 L1035.62 435.959 L1028.37 443.212 L1021.14 450.44 L1013.93 457.65 L1006.73 464.851 L999.526 472.053 L992.316 479.263 L985.088 486.491 L977.834 493.744 L970.546 501.033 L963.212 508.367 L955.826 515.753 L948.376 523.203 L940.853 530.727 L933.247 538.334 L925.547 546.035 L917.743 553.841 L909.822 561.766 L901.773 569.82 L893.584 578.018 L885.241 586.373 L876.73 594.901 L868.038 603.618 L859.15 612.542 L850.05 621.69 L840.723 631.084 L831.154 640.746 L821.326 650.698 L811.226 660.967 L800.84 671.579 L790.157 682.566 L779.171 693.958 L767.879 705.789 L756.29 718.093 L744.423 730.908 L732.315 744.268 L720.024 758.206 L707.643 772.75 L695.299 787.917 L683.172 803.712 L671.494 820.116 L660.558 837.084 L650.708 854.532 L642.319 872.339 L635.768 890.346 L631.375 908.369 L629.363 926.212 L629.811 943.695 L632.643 960.671 L637.646 977.045 L644.514 992.772 L652.895 1007.85 L662.44 1022.33 L672.833 1036.25 L683.809 1049.68 L695.159 1062.7 L706.724 1075.36 L718.39 1087.73 L730.08 1099.85 L741.744 1111.77 L753.351 1123.52 L764.889 1135.13 L776.352 1146.63 L787.744 1158.04 L799.074 1169.37 L810.35 1180.65 L821.587 1191.89 L832.797 1203.1 L843.993 1214.29 L855.19 1225.49 L866.4 1236.7 L877.637 1247.94 L888.915 1259.21 L900.25 1270.54 L911.657 1281.94 L923.156 1293.4 L934.768 1304.94 L946.518 1316.54 L958.436 1328.21 L970.558 1339.9 L982.925 1351.56 L995.589 1363.13 L1008.61 1374.48 L1022.04 1385.45 L1035.96 1395.85 L1050.43 1405.39 L1065.52 1413.77 L1081.24 1420.64 L1097.62 1425.65 L1114.59 1428.48 L1132.08 1428.92 L1149.92 1426.91 L1167.94 1422.52 L1185.95 1415.97 L1203.76 1407.58 L1221.2 1397.73 L1238.17 1386.79 L1254.58 1375.12 L1270.37 1362.99 L1285.54 1350.65 L1300.08 1338.26 L1314.02 1325.97 L1327.38 1313.86 L1340.19 1302 L1352.5 1290.41 L1364.33 1279.12 L1375.72 1268.13 L1386.71 1257.45 L1397.32 1247.06 L1407.59 1236.96 L1417.54 1227.13 L1427.2 1217.56 L1436.6 1208.24 L1445.75 1199.14 L1454.67 1190.25 L1463.39 1181.56 L1471.91 1173.05 L1480.27 1164.7 L1488.47 1156.51 L1496.52 1148.47 L1504.45 1140.55 L1512.25 1132.74 L1519.95 1125.04 L1527.56 1117.43 L1535.08 1109.91 L1542.53 1102.46 L1549.92 1095.08 L1557.25 1087.74 L1564.54 1080.45 L1571.8 1073.2 L1579.02 1065.97 L1586.24 1058.76 L1593.44 1051.56 L1600.64 1044.36 L1607.85 1037.15 L1615.08 1029.92 L1622.33 1022.67 L1629.62 1015.38 L1636.95 1008.05 L1644.34 1000.66 L1651.79 993.209 L1659.31 985.685 L1666.92 978.078 L1674.62 970.377 L1682.42 962.571 L1690.34 954.646 L1698.39 946.592 L1706.58 938.394 L1714.92 930.039 L1723.43 921.511 L1732.13 912.794 L1741.01 903.87 L1750.11 894.722 L1759.44 885.328 L1769.01 875.666 L1778.84 865.714 L1788.94 855.445 L1799.32 844.833 L1810.01 833.846 L1820.99 822.454 L1832.28 810.623 L1843.87 798.318 L1855.74 785.504 L1867.85 772.144 L1880.14 758.206  Z" fill="#048b9a" fill-rule="evenodd" fill-opacity="1"/>
<polyline clip-path="url(#clip361)" style="stroke:#000000; stroke-linecap:round; stroke-linejoin:round; stroke-width:4; stroke-opacity:1; fill:none" points="1880.14,758.206 1892.52,743.662 1904.86,728.495 1916.99,712.7 1928.67,696.296 1939.61,679.328 1949.46,661.88 1957.84,644.073 1964.4,626.066 1968.79,608.043 1970.8,590.2 1970.35,572.717 1967.52,555.74 1962.52,539.367 1955.65,523.64 1947.27,508.559 1937.72,494.086 1927.33,480.166 1916.35,466.731 1905,453.713 1893.44,441.049 1881.77,428.682 1870.08,416.56 1858.42,404.642 1846.81,392.892 1835.27,381.281 1823.81,369.782 1812.42,358.374 1801.09,347.039 1789.81,335.761 1778.58,324.524 1767.37,313.314 1756.17,302.117 1744.97,290.921 1733.76,279.711 1722.53,268.475 1711.25,257.198 1699.91,245.869 1688.51,234.476 1677.01,223.013 1665.4,211.475 1653.65,199.868 1641.73,188.204 1629.61,176.514 1617.24,164.848 1604.57,153.283 1591.56,141.933 1578.12,130.957 1564.2,120.564 1549.73,111.019 1534.65,102.638 1518.92,95.7702 1502.55,90.7667 1485.57,87.9349 1468.09,87.4872 1450.25,89.4992 1432.22,93.8916 1414.21,100.444 1396.41,108.832 1378.96,118.682 1361.99,129.618 1345.59,141.296 1329.79,153.423 1314.63,165.767 1300.08,178.148 1286.14,190.439 1272.78,202.547 1259.97,214.414 1247.66,226.003 1235.83,237.295 1224.44,248.281 1213.46,258.964 1202.84,269.35 1192.57,279.45 1182.62,289.278 1172.96,298.847 1163.57,308.174 1154.42,317.274 1145.49,326.162 1136.78,334.854 1128.25,343.365 1119.89,351.708 1111.7,359.897 1103.64,367.946 1095.72,375.867 1087.91,383.671 1080.21,391.371 1072.6,398.977 1065.08,406.5 1057.63,413.95 1050.24,421.336 1042.91,428.67 1035.62,435.959 1028.37,443.212 1021.14,450.44 1013.93,457.65 1006.73,464.851 999.526,472.053 992.316,479.263 985.088,486.491 977.834,493.744 970.546,501.033 963.212,508.367 955.826,515.753 948.376,523.203 940.853,530.727 933.247,538.334 925.547,546.035 917.743,553.841 909.822,561.766 901.773,569.82 893.584,578.018 885.241,586.373 876.73,594.901 868.038,603.618 859.15,612.542 850.05,621.69 840.723,631.084 831.154,640.746 821.326,650.698 811.226,660.967 800.84,671.579 790.157,682.566 779.171,693.958 767.879,705.789 756.29,718.093 744.423,730.908 732.315,744.268 720.024,758.206 707.643,772.75 695.299,787.917 683.172,803.712 671.494,820.116 660.558,837.084 650.708,854.532 642.319,872.339 635.768,890.346 631.375,908.369 629.363,926.212 629.811,943.695 632.643,960.671 637.646,977.045 644.514,992.772 652.895,1007.85 662.44,1022.33 672.833,1036.25 683.809,1049.68 695.159,1062.7 706.724,1075.36 718.39,1087.73 730.08,1099.85 741.744,1111.77 753.351,1123.52 764.889,1135.13 776.352,1146.63 787.744,1158.04 799.074,1169.37 810.35,1180.65 821.587,1191.89 832.797,1203.1 843.993,1214.29 855.19,1225.49 866.4,1236.7 877.637,1247.94 888.915,1259.21 900.25,1270.54 911.657,1281.94 923.156,1293.4 934.768,1304.94 946.518,1316.54 958.436,1328.21 970.558,1339.9 982.925,1351.56 995.589,1363.13 1008.61,1374.48 1022.04,1385.45 1035.96,1395.85 1050.43,1405.39 1065.52,1413.77 1081.24,1420.64 1097.62,1425.65 1114.59,1428.48 1132.08,1428.92 1149.92,1426.91 1167.94,1422.52 1185.95,1415.97 1203.76,1407.58 1221.2,1397.73 1238.17,1386.79 1254.58,1375.12 1270.37,1362.99 1285.54,1350.65 1300.08,1338.26 1314.02,1325.97 1327.38,1313.86 1340.19,1302 1352.5,1290.41 1364.33,1279.12 1375.72,1268.13 1386.71,1257.45 1397.32,1247.06 1407.59,1236.96 1417.54,1227.13 1427.2,1217.56 1436.6,1208.24 1445.75,1199.14 1454.67,1190.25 1463.39,1181.56 1471.91,1173.05 1480.27,1164.7 1488.47,1156.51 1496.52,1148.47 1504.45,1140.55 1512.25,1132.74 1519.95,1125.04 1527.56,1117.43 1535.08,1109.91 1542.53,1102.46 1549.92,1095.08 1557.25,1087.74 1564.54,1080.45 1571.8,1073.2 1579.02,1065.97 1586.24,1058.76 1593.44,1051.56 1600.64,1044.36 1607.85,1037.15 1615.08,1029.92 1622.33,1022.67 1629.62,1015.38 1636.95,1008.05 1644.34,1000.66 1651.79,993.209 1659.31,985.685 1666.92,978.078 1674.62,970.377 1682.42,962.571 1690.34,954.646 1698.39,946.592 1706.58,938.394 1714.92,930.039 1723.43,921.511 1732.13,912.794 1741.01,903.87 1750.11,894.722 1759.44,885.328 1769.01,875.666 1778.84,865.714 1788.94,855.445 1799.32,844.833 1810.01,833.846 1820.99,822.454 1832.28,810.623 1843.87,798.318 1855.74,785.504 1867.85,772.144 1880.14,758.206 "/>
<path clip-path="url(#clip361)" d="M720.024 1048.23 L720.024 758.206 L1300.08 178.148 L1880.14 468.177 L1880.14 758.206 L1300.08 1338.26 L720.024 1048.23 L720.024 1048.23  Z" fill="#ffcb60" fill-rule="evenodd" fill-opacity="1"/>
<polyline clip-path="url(#clip361)" style="stroke:#000000; stroke-linecap:round; stroke-linejoin:round; stroke-width:4; stroke-opacity:1; fill:none" points="720.024,1048.23 720.024,758.206 1300.08,178.148 1880.14,468.177 1880.14,758.206 1300.08,1338.26 720.024,1048.23 "/>
<path clip-path="url(#clip361)" d="M720.024 758.206 L1300.08 178.148 L1880.14 758.206 L1300.08 1338.26 L720.024 758.206 L720.024 758.206  Z" fill="#85c17e" fill-rule="evenodd" fill-opacity="1"/>
<polyline clip-path="url(#clip361)" style="stroke:#000000; stroke-linecap:round; stroke-linejoin:round; stroke-width:4; stroke-opacity:1; fill:none" points="720.024,758.206 1300.08,178.148 1880.14,758.206 1300.08,1338.26 720.024,758.206 "/>
</svg>
