<?xml version="1.0" encoding="utf-8"?>
<svg xmlns="http://www.w3.org/2000/svg" xmlns:xlink="http://www.w3.org/1999/xlink" width="600" height="400" viewBox="0 0 2400 1600">
<defs>
  <clipPath id="clip930">
    <rect x="0" y="0" width="2400" height="1600"/>
  </clipPath>
</defs>
<path clip-path="url(#clip930)" d="M0 1600 L2400 1600 L2400 0 L0 0  Z" fill="#ffffff" fill-rule="evenodd" fill-opacity="1"/>
<defs>
  <clipPath id="clip931">
    <rect x="247" y="47" width="2106" height="1423"/>
  </clipPath>
</defs>
<path clip-path="url(#clip930)" d="M247.408 1469.17 L2352.76 1469.17 L2352.76 47.2441 L247.408 47.2441  Z" fill="#ffffff" fill-rule="evenodd" fill-opacity="1"/>
<polyline clip-path="url(#clip931)" style="stroke:#000000; stroke-linecap:round; stroke-linejoin:round; stroke-width:2; stroke-opacity:0.1; fill:none" points="434.126,1469.17 434.126,47.2441 "/>
<polyline clip-path="url(#clip931)" style="stroke:#000000; stroke-linecap:round; stroke-linejoin:round; stroke-width:2; stroke-opacity:0.1; fill:none" points="722.778,1469.17 722.778,47.2441 "/>
<polyline clip-path="url(#clip931)" style="stroke:#000000; stroke-linecap:round; stroke-linejoin:round; stroke-width:2; stroke-opacity:0.1; fill:none" points="1011.43,1469.17 1011.43,47.2441 "/>
<polyline clip-path="url(#clip931)" style="stroke:#000000; stroke-linecap:round; stroke-linejoin:round; stroke-width:2; stroke-opacity:0.1; fill:none" points="1300.08,1469.17 1300.08,47.2441 "/>
<polyline clip-path="url(#clip931)" style="stroke:#000000; stroke-linecap:round; stroke-linejoin:round; stroke-width:2; stroke-opacity:0.1; fill:none" points="1588.73,1469.17 1588.73,47.2441 "/>
<polyline clip-path="url(#clip931)" style="stroke:#000000; stroke-linecap:round; stroke-linejoin:round; stroke-width:2; stroke-opacity:0.1; fill:none" points="1877.39,1469.17 1877.39,47.2441 "/>
<polyline clip-path="url(#clip931)" style="stroke:#000000; stroke-linecap:round; stroke-linejoin:round; stroke-width:2; stroke-opacity:0.1; fill:none" points="2166.04,1469.17 2166.04,47.2441 "/>
<polyline clip-path="url(#clip931)" style="stroke:#000000; stroke-linecap:round; stroke-linejoin:round; stroke-width:2; stroke-opacity:0.1; fill:none" points="247.408,1335.51 2352.76,1335.51 "/>
<polyline clip-path="url(#clip931)" style="stroke:#000000; stroke-linecap:round; stroke-linejoin:round; stroke-width:2; stroke-opacity:0.1; fill:none" points="247.408,1046.86 2352.76,1046.86 "/>
<polyline clip-path="url(#clip931)" style="stroke:#000000; stroke-linecap:round; stroke-linejoin:round; stroke-width:2; stroke-opacity:0.1; fill:none" points="247.408,758.206 2352.76,758.206 "/>
<polyline clip-path="url(#clip931)" style="stroke:#000000; stroke-linecap:round; stroke-linejoin:round; stroke-width:2; stroke-opacity:0.1; fill:none" points="247.408,469.554 2352.76,469.554 "/>
<polyline clip-path="url(#clip931)" style="stroke:#000000; stroke-linecap:round; stroke-linejoin:round; stroke-width:2; stroke-opacity:0.1; fill:none" points="247.408,180.902 2352.76,180.902 "/>
<polyline clip-path="url(#clip930)" style="stroke:#000000; stroke-linecap:round; stroke-linejoin:round; stroke-width:4; stroke-opacity:1; fill:none" points="247.408,1469.17 2352.76,1469.17 "/>
<polyline clip-path="url(#clip930)" style="stroke:#000000; stroke-linecap:round; stroke-linejoin:round; stroke-width:4; stroke-opacity:1; fill:none" points="434.126,1469.17 434.126,1450.27 "/>
<polyline clip-path="url(#clip930)" style="stroke:#000000; stroke-linecap:round; stroke-linejoin:round; stroke-width:4; stroke-opacity:1; fill:none" points="722.778,1469.17 722.778,1450.27 "/>
<polyline clip-path="url(#clip930)" style="stroke:#000000; stroke-linecap:round; stroke-linejoin:round; stroke-width:4; stroke-opacity:1; fill:none" points="1011.43,1469.17 1011.43,1450.27 "/>
<polyline clip-path="url(#clip930)" style="stroke:#000000; stroke-linecap:round; stroke-linejoin:round; stroke-width:4; stroke-opacity:1; fill:none" points="1300.08,1469.17 1300.08,1450.27 "/>
<polyline clip-path="url(#clip930)" style="stroke:#000000; stroke-linecap:round; stroke-linejoin:round; stroke-width:4; stroke-opacity:1; fill:none" points="1588.73,1469.17 1588.73,1450.27 "/>
<polyline clip-path="url(#clip930)" style="stroke:#000000; stroke-linecap:round; stroke-linejoin:round; stroke-width:4; stroke-opacity:1; fill:none" points="1877.39,1469.17 1877.39,1450.27 "/>
<polyline clip-path="url(#clip930)" style="stroke:#000000; stroke-linecap:round; stroke-linejoin:round; stroke-width:4; stroke-opacity:1; fill:none" points="2166.04,1469.17 2166.04,1450.27 "/>
<path clip-path="url(#clip930)" d="M354.665 1527.92 L399.178 1527.92 L399.178 1533.83 L354.665 1533.83 L354.665 1527.92 Z" fill="#000000" fill-rule="nonzero" fill-opacity="1" /><path clip-path="url(#clip930)" d="M415.533 1547.27 L426.991 1547.27 L426.991 1507.72 L414.526 1510.22 L414.526 1503.83 L426.921 1501.33 L433.935 1501.33 L433.935 1547.27 L445.394 1547.27 L445.394 1553.17 L415.533 1553.17 L415.533 1547.27 Z" fill="#000000" fill-rule="nonzero" fill-opacity="1" /><path clip-path="url(#clip930)" d="M459.56 1544.35 L466.886 1544.35 L466.886 1553.17 L459.56 1553.17 L459.56 1544.35 Z" fill="#000000" fill-rule="nonzero" fill-opacity="1" /><path clip-path="url(#clip930)" d="M482.234 1501.33 L509.768 1501.33 L509.768 1507.23 L488.657 1507.23 L488.657 1519.94 Q490.185 1519.42 491.713 1519.18 Q493.24 1518.9 494.768 1518.9 Q503.449 1518.9 508.518 1523.65 Q513.588 1528.41 513.588 1536.54 Q513.588 1544.9 508.379 1549.56 Q503.171 1554.17 493.692 1554.17 Q490.428 1554.17 487.025 1553.62 Q483.657 1553.06 480.046 1551.95 L480.046 1544.9 Q483.171 1546.61 486.504 1547.44 Q489.838 1548.27 493.553 1548.27 Q499.56 1548.27 503.067 1545.11 Q506.574 1541.95 506.574 1536.54 Q506.574 1531.12 503.067 1527.96 Q499.56 1524.8 493.553 1524.8 Q490.74 1524.8 487.928 1525.42 Q485.15 1526.05 482.234 1527.37 L482.234 1501.33 Z" fill="#000000" fill-rule="nonzero" fill-opacity="1" /><path clip-path="url(#clip930)" d="M642.57 1527.92 L687.084 1527.92 L687.084 1533.83 L642.57 1533.83 L642.57 1527.92 Z" fill="#000000" fill-rule="nonzero" fill-opacity="1" /><path clip-path="url(#clip930)" d="M703.438 1547.27 L714.896 1547.27 L714.896 1507.72 L702.431 1510.22 L702.431 1503.83 L714.827 1501.33 L721.841 1501.33 L721.841 1547.27 L733.299 1547.27 L733.299 1553.17 L703.438 1553.17 L703.438 1547.27 Z" fill="#000000" fill-rule="nonzero" fill-opacity="1" /><path clip-path="url(#clip930)" d="M747.465 1544.35 L754.792 1544.35 L754.792 1553.17 L747.465 1553.17 L747.465 1544.35 Z" fill="#000000" fill-rule="nonzero" fill-opacity="1" /><path clip-path="url(#clip930)" d="M785.069 1505.95 Q779.653 1505.95 776.91 1511.29 Q774.201 1516.61 774.201 1527.3 Q774.201 1537.96 776.91 1543.31 Q779.653 1548.62 785.069 1548.62 Q790.521 1548.62 793.229 1543.31 Q795.972 1537.96 795.972 1527.3 Q795.972 1516.61 793.229 1511.29 Q790.521 1505.95 785.069 1505.95 M785.069 1500.39 Q793.785 1500.39 798.368 1507.3 Q802.986 1514.18 802.986 1527.3 Q802.986 1540.39 798.368 1547.3 Q793.785 1554.17 785.069 1554.17 Q776.354 1554.17 771.736 1547.3 Q767.153 1540.39 767.153 1527.3 Q767.153 1514.18 771.736 1507.3 Q776.354 1500.39 785.069 1500.39 Z" fill="#000000" fill-rule="nonzero" fill-opacity="1" /><path clip-path="url(#clip930)" d="M931.969 1527.92 L976.482 1527.92 L976.482 1533.83 L931.969 1533.83 L931.969 1527.92 Z" fill="#000000" fill-rule="nonzero" fill-opacity="1" /><path clip-path="url(#clip930)" d="M1006.62 1505.95 Q1001.2 1505.95 998.461 1511.29 Q995.753 1516.61 995.753 1527.3 Q995.753 1537.96 998.461 1543.31 Q1001.2 1548.62 1006.62 1548.62 Q1012.07 1548.62 1014.78 1543.31 Q1017.52 1537.96 1017.52 1527.3 Q1017.52 1516.61 1014.78 1511.29 Q1012.07 1505.95 1006.62 1505.95 M1006.62 1500.39 Q1015.34 1500.39 1019.92 1507.3 Q1024.54 1514.18 1024.54 1527.3 Q1024.54 1540.39 1019.92 1547.3 Q1015.34 1554.17 1006.62 1554.17 Q997.906 1554.17 993.288 1547.3 Q988.704 1540.39 988.704 1527.3 Q988.704 1514.18 993.288 1507.3 Q997.906 1500.39 1006.62 1500.39 Z" fill="#000000" fill-rule="nonzero" fill-opacity="1" /><path clip-path="url(#clip930)" d="M1036.86 1544.35 L1044.19 1544.35 L1044.19 1553.17 L1036.86 1553.17 L1036.86 1544.35 Z" fill="#000000" fill-rule="nonzero" fill-opacity="1" /><path clip-path="url(#clip930)" d="M1059.54 1501.33 L1087.07 1501.33 L1087.07 1507.23 L1065.96 1507.23 L1065.96 1519.94 Q1067.49 1519.42 1069.02 1519.18 Q1070.54 1518.9 1072.07 1518.9 Q1080.75 1518.9 1085.82 1523.65 Q1090.89 1528.41 1090.89 1536.54 Q1090.89 1544.9 1085.68 1549.56 Q1080.47 1554.17 1071 1554.17 Q1067.73 1554.17 1064.33 1553.62 Q1060.96 1553.06 1057.35 1551.95 L1057.35 1544.9 Q1060.47 1546.61 1063.81 1547.44 Q1067.14 1548.27 1070.86 1548.27 Q1076.86 1548.27 1080.37 1545.11 Q1083.88 1541.95 1083.88 1536.54 Q1083.88 1531.12 1080.37 1527.96 Q1076.86 1524.8 1070.86 1524.8 Q1068.04 1524.8 1065.23 1525.42 Q1062.45 1526.05 1059.54 1527.37 L1059.54 1501.33 Z" fill="#000000" fill-rule="nonzero" fill-opacity="1" /><path clip-path="url(#clip930)" d="M1266.16 1505.95 Q1260.74 1505.95 1258 1511.29 Q1255.29 1516.61 1255.29 1527.3 Q1255.29 1537.96 1258 1543.31 Q1260.74 1548.62 1266.16 1548.62 Q1271.61 1548.62 1274.32 1543.31 Q1277.06 1537.96 1277.06 1527.3 Q1277.06 1516.61 1274.32 1511.29 Q1271.61 1505.95 1266.16 1505.95 M1266.16 1500.39 Q1274.87 1500.39 1279.46 1507.3 Q1284.08 1514.18 1284.08 1527.3 Q1284.08 1540.39 1279.46 1547.3 Q1274.87 1554.17 1266.16 1554.17 Q1257.44 1554.17 1252.83 1547.3 Q1248.24 1540.39 1248.24 1527.3 Q1248.24 1514.18 1252.83 1507.3 Q1257.44 1500.39 1266.16 1500.39 Z" fill="#000000" fill-rule="nonzero" fill-opacity="1" /><path clip-path="url(#clip930)" d="M1296.4 1544.35 L1303.73 1544.35 L1303.73 1553.17 L1296.4 1553.17 L1296.4 1544.35 Z" fill="#000000" fill-rule="nonzero" fill-opacity="1" /><path clip-path="url(#clip930)" d="M1334.01 1505.95 Q1328.59 1505.95 1325.85 1511.29 Q1323.14 1516.61 1323.14 1527.3 Q1323.14 1537.96 1325.85 1543.31 Q1328.59 1548.62 1334.01 1548.62 Q1339.46 1548.62 1342.17 1543.31 Q1344.91 1537.96 1344.91 1527.3 Q1344.91 1516.61 1342.17 1511.29 Q1339.46 1505.95 1334.01 1505.95 M1334.01 1500.39 Q1342.72 1500.39 1347.3 1507.3 Q1351.92 1514.18 1351.92 1527.3 Q1351.92 1540.39 1347.3 1547.3 Q1342.72 1554.17 1334.01 1554.17 Q1325.29 1554.17 1320.67 1547.3 Q1316.09 1540.39 1316.09 1527.3 Q1316.09 1514.18 1320.67 1507.3 Q1325.29 1500.39 1334.01 1500.39 Z" fill="#000000" fill-rule="nonzero" fill-opacity="1" /><path clip-path="url(#clip930)" d="M1555.56 1505.95 Q1550.14 1505.95 1547.4 1511.29 Q1544.69 1516.61 1544.69 1527.3 Q1544.69 1537.96 1547.4 1543.31 Q1550.14 1548.62 1555.56 1548.62 Q1561.01 1548.62 1563.72 1543.31 Q1566.46 1537.96 1566.46 1527.3 Q1566.46 1516.61 1563.72 1511.29 Q1561.01 1505.95 1555.56 1505.95 M1555.56 1500.39 Q1564.27 1500.39 1568.86 1507.3 Q1573.47 1514.18 1573.47 1527.3 Q1573.47 1540.39 1568.86 1547.3 Q1564.27 1554.17 1555.56 1554.17 Q1546.84 1554.17 1542.22 1547.3 Q1537.64 1540.39 1537.64 1527.3 Q1537.64 1514.18 1542.22 1507.3 Q1546.84 1500.39 1555.56 1500.39 Z" fill="#000000" fill-rule="nonzero" fill-opacity="1" /><path clip-path="url(#clip930)" d="M1585.8 1544.35 L1593.13 1544.35 L1593.13 1553.17 L1585.8 1553.17 L1585.8 1544.35 Z" fill="#000000" fill-rule="nonzero" fill-opacity="1" /><path clip-path="url(#clip930)" d="M1608.47 1501.33 L1636.01 1501.33 L1636.01 1507.23 L1614.9 1507.23 L1614.9 1519.94 Q1616.42 1519.42 1617.95 1519.18 Q1619.48 1518.9 1621.01 1518.9 Q1629.69 1518.9 1634.76 1523.65 Q1639.83 1528.41 1639.83 1536.54 Q1639.83 1544.9 1634.62 1549.56 Q1629.41 1554.17 1619.93 1554.17 Q1616.67 1554.17 1613.26 1553.62 Q1609.9 1553.06 1606.29 1551.95 L1606.29 1544.9 Q1609.41 1546.61 1612.74 1547.44 Q1616.08 1548.27 1619.79 1548.27 Q1625.8 1548.27 1629.31 1545.11 Q1632.81 1541.95 1632.81 1536.54 Q1632.81 1531.12 1629.31 1527.96 Q1625.8 1524.8 1619.79 1524.8 Q1616.98 1524.8 1614.17 1525.42 Q1611.39 1526.05 1608.47 1527.37 L1608.47 1501.33 Z" fill="#000000" fill-rule="nonzero" fill-opacity="1" /><path clip-path="url(#clip930)" d="M1828.12 1547.27 L1839.57 1547.27 L1839.57 1507.72 L1827.11 1510.22 L1827.11 1503.83 L1839.5 1501.33 L1846.52 1501.33 L1846.52 1547.27 L1857.98 1547.27 L1857.98 1553.17 L1828.12 1553.17 L1828.12 1547.27 Z" fill="#000000" fill-rule="nonzero" fill-opacity="1" /><path clip-path="url(#clip930)" d="M1872.14 1544.35 L1879.47 1544.35 L1879.47 1553.17 L1872.14 1553.17 L1872.14 1544.35 Z" fill="#000000" fill-rule="nonzero" fill-opacity="1" /><path clip-path="url(#clip930)" d="M1909.75 1505.95 Q1904.33 1505.95 1901.59 1511.29 Q1898.88 1516.61 1898.88 1527.3 Q1898.88 1537.96 1901.59 1543.31 Q1904.33 1548.62 1909.75 1548.62 Q1915.2 1548.62 1917.91 1543.31 Q1920.65 1537.96 1920.65 1527.3 Q1920.65 1516.61 1917.91 1511.29 Q1915.2 1505.95 1909.75 1505.95 M1909.75 1500.39 Q1918.46 1500.39 1923.05 1507.3 Q1927.66 1514.18 1927.66 1527.3 Q1927.66 1540.39 1923.05 1547.3 Q1918.46 1554.17 1909.75 1554.17 Q1901.03 1554.17 1896.41 1547.3 Q1891.83 1540.39 1891.83 1527.3 Q1891.83 1514.18 1896.41 1507.3 Q1901.03 1500.39 1909.75 1500.39 Z" fill="#000000" fill-rule="nonzero" fill-opacity="1" /><path clip-path="url(#clip930)" d="M2117.51 1547.27 L2128.97 1547.27 L2128.97 1507.72 L2116.51 1510.22 L2116.51 1503.83 L2128.9 1501.33 L2135.92 1501.33 L2135.92 1547.27 L2147.37 1547.27 L2147.37 1553.17 L2117.51 1553.17 L2117.51 1547.27 Z" fill="#000000" fill-rule="nonzero" fill-opacity="1" /><path clip-path="url(#clip930)" d="M2161.54 1544.35 L2168.87 1544.35 L2168.87 1553.17 L2161.54 1553.17 L2161.54 1544.35 Z" fill="#000000" fill-rule="nonzero" fill-opacity="1" /><path clip-path="url(#clip930)" d="M2184.21 1501.33 L2211.75 1501.33 L2211.75 1507.23 L2190.64 1507.23 L2190.64 1519.94 Q2192.17 1519.42 2193.69 1519.18 Q2195.22 1518.9 2196.75 1518.9 Q2205.43 1518.9 2210.5 1523.65 Q2215.57 1528.41 2215.57 1536.54 Q2215.57 1544.9 2210.36 1549.56 Q2205.15 1554.17 2195.67 1554.17 Q2192.41 1554.17 2189.01 1553.62 Q2185.64 1553.06 2182.03 1551.95 L2182.03 1544.9 Q2185.15 1546.61 2188.49 1547.44 Q2191.82 1548.27 2195.53 1548.27 Q2201.54 1548.27 2205.05 1545.11 Q2208.55 1541.95 2208.55 1536.54 Q2208.55 1531.12 2205.05 1527.96 Q2201.54 1524.8 2195.53 1524.8 Q2192.72 1524.8 2189.91 1525.42 Q2187.13 1526.05 2184.21 1527.37 L2184.21 1501.33 Z" fill="#000000" fill-rule="nonzero" fill-opacity="1" /><polyline clip-path="url(#clip930)" style="stroke:#000000; stroke-linecap:round; stroke-linejoin:round; stroke-width:4; stroke-opacity:1; fill:none" points="247.408,1469.17 247.408,47.2441 "/>
<polyline clip-path="url(#clip930)" style="stroke:#000000; stroke-linecap:round; stroke-linejoin:round; stroke-width:4; stroke-opacity:1; fill:none" points="247.408,1335.51 266.306,1335.51 "/>
<polyline clip-path="url(#clip930)" style="stroke:#000000; stroke-linecap:round; stroke-linejoin:round; stroke-width:4; stroke-opacity:1; fill:none" points="247.408,1046.86 266.306,1046.86 "/>
<polyline clip-path="url(#clip930)" style="stroke:#000000; stroke-linecap:round; stroke-linejoin:round; stroke-width:4; stroke-opacity:1; fill:none" points="247.408,758.206 266.306,758.206 "/>
<polyline clip-path="url(#clip930)" style="stroke:#000000; stroke-linecap:round; stroke-linejoin:round; stroke-width:4; stroke-opacity:1; fill:none" points="247.408,469.554 266.306,469.554 "/>
<polyline clip-path="url(#clip930)" style="stroke:#000000; stroke-linecap:round; stroke-linejoin:round; stroke-width:4; stroke-opacity:1; fill:none" points="247.408,180.902 266.306,180.902 "/>
<path clip-path="url(#clip930)" d="M50.9921 1336.19 L95.5058 1336.19 L95.5058 1342.09 L50.9921 1342.09 L50.9921 1336.19 Z" fill="#000000" fill-rule="nonzero" fill-opacity="1" /><path clip-path="url(#clip930)" d="M111.86 1355.53 L123.318 1355.53 L123.318 1315.98 L110.853 1318.48 L110.853 1312.09 L123.249 1309.59 L130.263 1309.59 L130.263 1355.53 L141.721 1355.53 L141.721 1361.43 L111.86 1361.43 L111.86 1355.53 Z" fill="#000000" fill-rule="nonzero" fill-opacity="1" /><path clip-path="url(#clip930)" d="M155.887 1352.61 L163.214 1352.61 L163.214 1361.43 L155.887 1361.43 L155.887 1352.61 Z" fill="#000000" fill-rule="nonzero" fill-opacity="1" /><path clip-path="url(#clip930)" d="M193.491 1314.21 Q188.075 1314.21 185.332 1319.56 Q182.623 1324.87 182.623 1335.56 Q182.623 1346.22 185.332 1351.57 Q188.075 1356.88 193.491 1356.88 Q198.943 1356.88 201.651 1351.57 Q204.394 1346.22 204.394 1335.56 Q204.394 1324.87 201.651 1319.56 Q198.943 1314.21 193.491 1314.21 M193.491 1308.65 Q202.207 1308.65 206.79 1315.56 Q211.408 1322.44 211.408 1335.56 Q211.408 1348.65 206.79 1355.56 Q202.207 1362.44 193.491 1362.44 Q184.776 1362.44 180.158 1355.56 Q175.575 1348.65 175.575 1335.56 Q175.575 1322.44 180.158 1315.56 Q184.776 1308.65 193.491 1308.65 Z" fill="#000000" fill-rule="nonzero" fill-opacity="1" /><path clip-path="url(#clip930)" d="M52.4852 1047.53 L96.9988 1047.53 L96.9988 1053.44 L52.4852 1053.44 L52.4852 1047.53 Z" fill="#000000" fill-rule="nonzero" fill-opacity="1" /><path clip-path="url(#clip930)" d="M127.138 1025.56 Q121.721 1025.56 118.978 1030.9 Q116.27 1036.22 116.27 1046.91 Q116.27 1057.57 118.978 1062.92 Q121.721 1068.23 127.138 1068.23 Q132.589 1068.23 135.297 1062.92 Q138.04 1057.57 138.04 1046.91 Q138.04 1036.22 135.297 1030.9 Q132.589 1025.56 127.138 1025.56 M127.138 1020 Q135.853 1020 140.436 1026.91 Q145.054 1033.79 145.054 1046.91 Q145.054 1060 140.436 1066.91 Q135.853 1073.78 127.138 1073.78 Q118.422 1073.78 113.804 1066.91 Q109.221 1060 109.221 1046.91 Q109.221 1033.79 113.804 1026.91 Q118.422 1020 127.138 1020 Z" fill="#000000" fill-rule="nonzero" fill-opacity="1" /><path clip-path="url(#clip930)" d="M157.38 1063.96 L164.707 1063.96 L164.707 1072.78 L157.38 1072.78 L157.38 1063.96 Z" fill="#000000" fill-rule="nonzero" fill-opacity="1" /><path clip-path="url(#clip930)" d="M180.054 1020.94 L207.589 1020.94 L207.589 1026.84 L186.478 1026.84 L186.478 1039.55 Q188.005 1039.03 189.533 1038.79 Q191.061 1038.51 192.589 1038.51 Q201.269 1038.51 206.339 1043.26 Q211.408 1048.02 211.408 1056.15 Q211.408 1064.51 206.2 1069.17 Q200.991 1073.78 191.512 1073.78 Q188.248 1073.78 184.846 1073.23 Q181.478 1072.67 177.866 1071.56 L177.866 1064.51 Q180.991 1066.22 184.325 1067.05 Q187.658 1067.88 191.373 1067.88 Q197.38 1067.88 200.887 1064.72 Q204.394 1061.56 204.394 1056.15 Q204.394 1050.73 200.887 1047.57 Q197.38 1044.41 191.373 1044.41 Q188.561 1044.41 185.748 1045.03 Q182.971 1045.66 180.054 1046.98 L180.054 1020.94 Z" fill="#000000" fill-rule="nonzero" fill-opacity="1" /><path clip-path="url(#clip930)" d="M125.645 736.904 Q120.228 736.904 117.485 742.251 Q114.777 747.564 114.777 758.258 Q114.777 768.918 117.485 774.265 Q120.228 779.577 125.645 779.577 Q131.096 779.577 133.804 774.265 Q136.547 768.918 136.547 758.258 Q136.547 747.564 133.804 742.251 Q131.096 736.904 125.645 736.904 M125.645 731.348 Q134.36 731.348 138.943 738.258 Q143.561 745.133 143.561 758.258 Q143.561 771.348 138.943 778.258 Q134.36 785.133 125.645 785.133 Q116.929 785.133 112.311 778.258 Q107.728 771.348 107.728 758.258 Q107.728 745.133 112.311 738.258 Q116.929 731.348 125.645 731.348 Z" fill="#000000" fill-rule="nonzero" fill-opacity="1" /><path clip-path="url(#clip930)" d="M155.887 775.307 L163.214 775.307 L163.214 784.126 L155.887 784.126 L155.887 775.307 Z" fill="#000000" fill-rule="nonzero" fill-opacity="1" /><path clip-path="url(#clip930)" d="M193.491 736.904 Q188.075 736.904 185.332 742.251 Q182.623 747.564 182.623 758.258 Q182.623 768.918 185.332 774.265 Q188.075 779.577 193.491 779.577 Q198.943 779.577 201.651 774.265 Q204.394 768.918 204.394 758.258 Q204.394 747.564 201.651 742.251 Q198.943 736.904 193.491 736.904 M193.491 731.348 Q202.207 731.348 206.79 738.258 Q211.408 745.133 211.408 758.258 Q211.408 771.348 206.79 778.258 Q202.207 785.133 193.491 785.133 Q184.776 785.133 180.158 778.258 Q175.575 771.348 175.575 758.258 Q175.575 745.133 180.158 738.258 Q184.776 731.348 193.491 731.348 Z" fill="#000000" fill-rule="nonzero" fill-opacity="1" /><path clip-path="url(#clip930)" d="M127.138 448.252 Q121.721 448.252 118.978 453.599 Q116.27 458.912 116.27 469.606 Q116.27 480.266 118.978 485.613 Q121.721 490.925 127.138 490.925 Q132.589 490.925 135.297 485.613 Q138.04 480.266 138.04 469.606 Q138.04 458.912 135.297 453.599 Q132.589 448.252 127.138 448.252 M127.138 442.697 Q135.853 442.697 140.436 449.606 Q145.054 456.481 145.054 469.606 Q145.054 482.696 140.436 489.606 Q135.853 496.481 127.138 496.481 Q118.422 496.481 113.804 489.606 Q109.221 482.696 109.221 469.606 Q109.221 456.481 113.804 449.606 Q118.422 442.697 127.138 442.697 Z" fill="#000000" fill-rule="nonzero" fill-opacity="1" /><path clip-path="url(#clip930)" d="M157.38 486.655 L164.707 486.655 L164.707 495.474 L157.38 495.474 L157.38 486.655 Z" fill="#000000" fill-rule="nonzero" fill-opacity="1" /><path clip-path="url(#clip930)" d="M180.054 443.634 L207.589 443.634 L207.589 449.537 L186.478 449.537 L186.478 462.245 Q188.005 461.724 189.533 461.481 Q191.061 461.203 192.589 461.203 Q201.269 461.203 206.339 465.96 Q211.408 470.717 211.408 478.842 Q211.408 487.21 206.2 491.863 Q200.991 496.481 191.512 496.481 Q188.248 496.481 184.846 495.925 Q181.478 495.37 177.866 494.259 L177.866 487.21 Q180.991 488.912 184.325 489.745 Q187.658 490.578 191.373 490.578 Q197.38 490.578 200.887 487.419 Q204.394 484.259 204.394 478.842 Q204.394 473.426 200.887 470.266 Q197.38 467.106 191.373 467.106 Q188.561 467.106 185.748 467.731 Q182.971 468.356 180.054 469.676 L180.054 443.634 Z" fill="#000000" fill-rule="nonzero" fill-opacity="1" /><path clip-path="url(#clip930)" d="M111.86 200.919 L123.318 200.919 L123.318 161.371 L110.853 163.871 L110.853 157.482 L123.249 154.982 L130.263 154.982 L130.263 200.919 L141.721 200.919 L141.721 206.822 L111.86 206.822 L111.86 200.919 Z" fill="#000000" fill-rule="nonzero" fill-opacity="1" /><path clip-path="url(#clip930)" d="M155.887 198.003 L163.214 198.003 L163.214 206.822 L155.887 206.822 L155.887 198.003 Z" fill="#000000" fill-rule="nonzero" fill-opacity="1" /><path clip-path="url(#clip930)" d="M193.491 159.6 Q188.075 159.6 185.332 164.947 Q182.623 170.26 182.623 180.954 Q182.623 191.614 185.332 196.961 Q188.075 202.274 193.491 202.274 Q198.943 202.274 201.651 196.961 Q204.394 191.614 204.394 180.954 Q204.394 170.26 201.651 164.947 Q198.943 159.6 193.491 159.6 M193.491 154.045 Q202.207 154.045 206.79 160.954 Q211.408 167.829 211.408 180.954 Q211.408 194.044 206.79 200.954 Q202.207 207.829 193.491 207.829 Q184.776 207.829 180.158 200.954 Q175.575 194.044 175.575 180.954 Q175.575 167.829 180.158 160.954 Q184.776 154.045 193.491 154.045 Z" fill="#000000" fill-rule="nonzero" fill-opacity="1" /><path clip-path="url(#clip931)" d="M1877.39 758.206 L1889.81 743.729 L1902.24 728.624 L1914.49 712.884 L1926.35 696.524 L1937.53 679.585 L1947.68 662.143 L1956.45 644.316 L1963.43 626.258 L1968.29 608.155 L1970.78 590.204 L1970.8 572.593 L1968.39 555.477 L1963.74 538.962 L1957.16 523.099 L1948.99 507.893 L1939.6 493.309 L1929.3 479.292 L1918.38 465.773 L1907.05 452.683 L1895.49 439.955 L1883.8 427.531 L1872.09 415.358 L1860.39 403.393 L1848.75 391.599 L1837.17 379.944 L1825.67 368.403 L1814.24 356.955 L1802.87 345.58 L1791.55 334.261 L1780.28 322.984 L1769.03 311.735 L1757.79 300.499 L1746.55 289.262 L1735.3 278.013 L1724.03 266.736 L1712.71 255.419 L1701.33 244.05 L1689.88 232.618 L1678.34 221.115 L1666.69 209.539 L1654.89 197.895 L1642.93 186.199 L1630.76 174.483 L1618.33 162.801 L1605.61 151.235 L1592.52 139.908 L1579 128.985 L1564.98 118.688 L1550.4 109.293 L1535.19 101.126 L1519.33 94.544 L1502.81 89.8983 L1485.69 87.4872 L1468.08 87.504 L1450.13 89.9974 L1432.03 94.8589 L1413.97 101.841 L1396.14 110.603 L1378.7 120.761 L1361.76 131.938 L1345.4 143.795 L1329.66 156.048 L1314.56 168.473 L1300.08 180.902 L1286.21 193.213 L1272.92 205.321 L1260.17 217.173 L1247.93 228.736 L1236.17 239.994 L1224.84 250.942 L1213.91 261.582 L1203.35 271.923 L1193.14 281.977 L1183.24 291.758 L1173.63 301.28 L1164.29 310.56 L1155.19 319.614 L1146.32 328.456 L1137.64 337.103 L1129.16 345.569 L1120.85 353.868 L1112.7 362.015 L1104.69 370.021 L1096.8 377.9 L1089.04 385.663 L1081.38 393.321 L1073.81 400.887 L1066.33 408.37 L1058.92 415.78 L1051.57 423.128 L1044.28 430.422 L1037.03 437.672 L1029.81 444.887 L1022.62 452.076 L1015.45 459.248 L1008.29 466.411 L1001.12 473.574 L993.952 480.746 L986.763 487.935 L979.548 495.15 L972.298 502.401 L965.003 509.695 L957.656 517.042 L950.246 524.453 L942.763 531.936 L935.197 539.503 L927.538 547.163 L919.775 554.928 L911.897 562.81 L903.891 570.821 L895.744 578.975 L887.445 587.286 L878.979 595.769 L870.332 604.439 L861.49 613.315 L852.436 622.414 L843.156 631.758 L833.634 641.367 L823.853 651.265 L813.799 661.478 L803.458 672.034 L792.817 682.96 L781.87 694.291 L770.612 706.058 L759.049 718.297 L747.197 731.044 L735.089 744.336 L722.778 758.206 L710.349 772.683 L697.924 787.788 L685.671 803.528 L673.814 819.888 L662.637 836.827 L652.479 854.269 L643.717 872.096 L636.735 890.154 L631.874 908.257 L629.38 926.208 L629.363 943.819 L631.774 960.935 L636.42 977.45 L643.002 993.313 L651.169 1008.52 L660.564 1023.1 L670.861 1037.12 L681.784 1050.64 L693.112 1063.73 L704.677 1076.46 L716.359 1088.88 L728.075 1101.05 L739.771 1113.02 L751.415 1124.81 L762.991 1136.47 L774.494 1148.01 L785.926 1159.46 L797.295 1170.83 L808.612 1182.15 L819.889 1193.43 L831.138 1204.68 L842.374 1215.91 L853.611 1227.15 L864.86 1238.4 L876.137 1249.68 L887.456 1260.99 L898.831 1272.36 L910.279 1283.79 L921.82 1295.3 L933.474 1306.87 L945.269 1318.52 L957.234 1330.21 L969.407 1341.93 L981.831 1353.61 L994.559 1365.18 L1007.65 1376.5 L1021.17 1387.43 L1035.18 1397.72 L1049.77 1407.12 L1064.97 1415.29 L1080.84 1421.87 L1097.35 1426.51 L1114.47 1428.92 L1132.08 1428.91 L1150.03 1426.41 L1168.13 1421.55 L1186.19 1414.57 L1204.02 1405.81 L1221.46 1395.65 L1238.4 1384.47 L1254.76 1372.62 L1270.5 1360.36 L1285.6 1347.94 L1300.08 1335.51 L1313.95 1323.2 L1327.24 1311.09 L1339.99 1299.24 L1352.23 1287.68 L1364 1276.42 L1375.33 1265.47 L1386.25 1254.83 L1396.81 1244.49 L1407.02 1234.43 L1416.92 1224.65 L1426.53 1215.13 L1435.87 1205.85 L1444.97 1196.8 L1453.85 1187.96 L1462.52 1179.31 L1471 1170.84 L1479.31 1162.54 L1487.47 1154.4 L1495.48 1146.39 L1503.36 1138.51 L1511.13 1130.75 L1518.79 1123.09 L1526.35 1115.52 L1533.83 1108.04 L1541.25 1100.63 L1548.59 1093.28 L1555.89 1085.99 L1563.14 1078.74 L1570.35 1071.52 L1577.54 1064.34 L1584.71 1057.16 L1591.88 1050 L1599.04 1042.84 L1606.21 1035.67 L1613.4 1028.48 L1620.62 1021.26 L1627.87 1014.01 L1635.16 1006.72 L1642.51 999.37 L1649.92 991.959 L1657.4 984.476 L1664.97 976.909 L1672.63 969.249 L1680.39 961.484 L1688.27 953.602 L1696.27 945.591 L1704.42 937.437 L1712.72 929.126 L1721.18 920.643 L1729.83 911.973 L1738.67 903.097 L1747.73 893.998 L1757.01 884.654 L1766.53 875.045 L1776.31 865.147 L1786.36 854.934 L1796.71 844.378 L1807.35 833.452 L1818.29 822.121 L1829.55 810.354 L1841.11 798.115 L1852.97 785.367 L1865.08 772.076 L1877.39 758.206  Z" fill="#048b9a" fill-rule="evenodd" fill-opacity="1"/>
<polyline clip-path="url(#clip931)" style="stroke:#000000; stroke-linecap:round; stroke-linejoin:round; stroke-width:4; stroke-opacity:1; fill:none" points="1877.39,758.206 1889.81,743.729 1902.24,728.624 1914.49,712.884 1926.35,696.524 1937.53,679.585 1947.68,662.143 1956.45,644.316 1963.43,626.258 1968.29,608.155 1970.78,590.204 1970.8,572.593 1968.39,555.477 1963.74,538.962 1957.16,523.099 1948.99,507.893 1939.6,493.309 1929.3,479.292 1918.38,465.773 1907.05,452.683 1895.49,439.955 1883.8,427.531 1872.09,415.358 1860.39,403.393 1848.75,391.599 1837.17,379.944 1825.67,368.403 1814.24,356.955 1802.87,345.58 1791.55,334.261 1780.28,322.984 1769.03,311.735 1757.79,300.499 1746.55,289.262 1735.3,278.013 1724.03,266.736 1712.71,255.419 1701.33,244.05 1689.88,232.618 1678.34,221.115 1666.69,209.539 1654.89,197.895 1642.93,186.199 1630.76,174.483 1618.33,162.801 1605.61,151.235 1592.52,139.908 1579,128.985 1564.98,118.688 1550.4,109.293 1535.19,101.126 1519.33,94.544 1502.81,89.8983 1485.69,87.4872 1468.08,87.504 1450.13,89.9974 1432.03,94.8589 1413.97,101.841 1396.14,110.603 1378.7,120.761 1361.76,131.938 1345.4,143.795 1329.66,156.048 1314.56,168.473 1300.08,180.902 1286.21,193.213 1272.92,205.321 1260.17,217.173 1247.93,228.736 1236.17,239.994 1224.84,250.942 1213.91,261.582 1203.35,271.923 1193.14,281.977 1183.24,291.758 1173.63,301.28 1164.29,310.56 1155.19,319.614 1146.32,328.456 1137.64,337.103 1129.16,345.569 1120.85,353.868 1112.7,362.015 1104.69,370.021 1096.8,377.9 1089.04,385.663 1081.38,393.321 1073.81,400.887 1066.33,408.37 1058.92,415.78 1051.57,423.128 1044.28,430.422 1037.03,437.672 1029.81,444.887 1022.62,452.076 1015.45,459.248 1008.29,466.411 1001.12,473.574 993.952,480.746 986.763,487.935 979.548,495.15 972.298,502.401 965.003,509.695 957.656,517.042 950.246,524.453 942.763,531.936 935.197,539.503 927.538,547.163 919.775,554.928 911.897,562.81 903.891,570.821 895.744,578.975 887.445,587.286 878.979,595.769 870.332,604.439 861.49,613.315 852.436,622.414 843.156,631.758 833.634,641.367 823.853,651.265 813.799,661.478 803.458,672.034 792.817,682.96 781.87,694.291 770.612,706.058 759.049,718.297 747.197,731.044 735.089,744.336 722.778,758.206 710.349,772.683 697.924,787.788 685.671,803.528 673.814,819.888 662.637,836.827 652.479,854.269 643.717,872.096 636.735,890.154 631.874,908.257 629.38,926.208 629.363,943.819 631.774,960.935 636.42,977.45 643.002,993.313 651.169,1008.52 660.564,1023.1 670.861,1037.12 681.784,1050.64 693.112,1063.73 704.677,1076.46 716.359,1088.88 728.075,1101.05 739.771,1113.02 751.415,1124.81 762.991,1136.47 774.494,1148.01 785.926,1159.46 797.295,1170.83 808.612,1182.15 819.889,1193.43 831.138,1204.68 842.374,1215.91 853.611,1227.15 864.86,1238.4 876.137,1249.68 887.456,1260.99 898.831,1272.36 910.279,1283.79 921.82,1295.3 933.474,1306.87 945.269,1318.52 957.234,1330.21 969.407,1341.93 981.831,1353.61 994.559,1365.18 1007.65,1376.5 1021.17,1387.43 1035.18,1397.72 1049.77,1407.12 1064.97,1415.29 1080.84,1421.87 1097.35,1426.51 1114.47,1428.92 1132.08,1428.91 1150.03,1426.41 1168.13,1421.55 1186.19,1414.57 1204.02,1405.81 1221.46,1395.65 1238.4,1384.47 1254.76,1372.62 1270.5,1360.36 1285.6,1347.94 1300.08,1335.51 1313.95,1323.2 1327.24,1311.09 1339.99,1299.24 1352.23,1287.68 1364,1276.42 1375.33,1265.47 1386.25,1254.83 1396.81,1244.49 1407.02,1234.43 1416.92,1224.65 1426.53,1215.13 1435.87,1205.85 1444.97,1196.8 1453.85,1187.96 1462.52,1179.31 1471,1170.84 1479.31,1162.54 1487.47,1154.4 1495.48,1146.39 1503.36,1138.51 1511.13,1130.75 1518.79,1123.09 1526.35,1115.52 1533.83,1108.04 1541.25,1100.63 1548.59,1093.28 1555.89,1085.99 1563.14,1078.74 1570.35,1071.52 1577.54,1064.34 1584.71,1057.16 1591.88,1050 1599.04,1042.84 1606.21,1035.67 1613.4,1028.48 1620.62,1021.26 1627.87,1014.01 1635.16,1006.72 1642.51,999.37 1649.92,991.959 1657.4,984.476 1664.97,976.909 1672.63,969.249 1680.39,961.484 1688.27,953.602 1696.27,945.591 1704.42,937.437 1712.72,929.126 1721.18,920.643 1729.83,911.973 1738.67,903.097 1747.73,893.998 1757.01,884.654 1766.53,875.045 1776.31,865.147 1786.36,854.934 1796.71,844.378 1807.35,833.452 1818.29,822.121 1829.55,810.354 1841.11,798.115 1852.97,785.367 1865.08,772.076 1877.39,758.206 "/>
<path clip-path="url(#clip931)" d="M722.778 1046.86 L722.778 758.206 L1300.08 180.902 L1877.39 469.554 L1877.39 758.206 L1300.08 1335.51 L722.778 1046.86 L722.778 1046.86  Z" fill="#ffcb60" fill-rule="evenodd" fill-opacity="1"/>
<polyline clip-path="url(#clip931)" style="stroke:#000000; stroke-linecap:round; stroke-linejoin:round; stroke-width:4; stroke-opacity:1; fill:none" points="722.778,1046.86 722.778,758.206 1300.08,180.902 1877.39,469.554 1877.39,758.206 1300.08,1335.51 722.778,1046.86 "/>
<path clip-path="url(#clip931)" d="M722.778 758.206 L1300.08 180.902 L1877.39 758.206 L1300.08 1335.51 L722.778 758.206 L722.778 758.206  Z" fill="#85c17e" fill-rule="evenodd" fill-opacity="1"/>
<polyline clip-path="url(#clip931)" style="stroke:#000000; stroke-linecap:round; stroke-linejoin:round; stroke-width:4; stroke-opacity:1; fill:none" points="722.778,758.206 1300.08,180.902 1877.39,758.206 1300.08,1335.51 722.778,758.206 "/>
</svg>
